G75*
%MOIN*%
%OFA0B0*%
%FSLAX25Y25*%
%IPPOS*%
%LPD*%
%AMOC8*
5,1,8,0,0,1.08239X$1,22.5*
%
%ADD10C,0.01600*%
%ADD11C,0.01200*%
%ADD12OC8,0.06743*%
%ADD13R,0.08200X0.08200*%
%ADD14C,0.08200*%
%ADD15C,0.06743*%
%ADD16C,0.07800*%
%ADD17C,0.07200*%
%ADD18OC8,0.07200*%
%ADD19C,0.09400*%
%ADD20R,0.14580X0.07099*%
%ADD21R,0.05918X0.07099*%
%ADD22R,0.07099X0.05918*%
%ADD23C,0.07200*%
%ADD24R,0.05524X0.05524*%
%ADD25R,0.11036X0.07099*%
%ADD26R,0.05131X0.06312*%
%ADD27R,0.06312X0.05131*%
%ADD28OC8,0.07400*%
%ADD29R,0.05918X0.06706*%
%ADD30C,0.01349*%
%ADD31C,0.09855*%
%ADD32OC8,0.08400*%
%ADD33C,0.01480*%
D10*
X0002800Y0040700D02*
X0461300Y0041000D01*
X0464300Y0044000D01*
X0512800Y0092000D01*
X0512800Y0330000D01*
X0218800Y0330000D01*
X0218700Y0330000D02*
X0132300Y0330000D01*
X0132300Y0206000D01*
X0217900Y0206000D01*
X0217900Y0095600D01*
X0217200Y0094800D02*
X0002800Y0093500D01*
X0002800Y0040700D01*
D11*
X0217300Y0095000D02*
X0218300Y0096000D01*
D12*
X0219425Y0075625D03*
X0229425Y0075625D03*
X0239425Y0075625D03*
X0239425Y0065625D03*
X0229425Y0065625D03*
X0219425Y0065625D03*
X0209425Y0065625D03*
X0209425Y0075625D03*
X0178800Y0075625D03*
X0168800Y0075625D03*
X0158800Y0075625D03*
X0148800Y0075625D03*
X0138800Y0075625D03*
X0138800Y0065625D03*
X0148800Y0065625D03*
X0158800Y0065625D03*
X0168800Y0065625D03*
X0178800Y0065625D03*
D13*
X0238800Y0115000D03*
D14*
X0238800Y0125000D03*
X0238800Y0135000D03*
X0238800Y0145000D03*
X0238800Y0155000D03*
X0238800Y0165000D03*
X0238800Y0175000D03*
X0238800Y0185000D03*
X0238800Y0195000D03*
X0238800Y0205000D03*
X0238800Y0215000D03*
X0238800Y0225000D03*
X0238800Y0235000D03*
X0238800Y0245000D03*
X0238800Y0255000D03*
X0238800Y0265000D03*
X0238800Y0275000D03*
X0238800Y0285000D03*
D15*
X0358800Y0280000D03*
X0358800Y0270000D03*
X0358800Y0260000D03*
X0358800Y0250000D03*
X0358800Y0240000D03*
X0358800Y0225000D03*
X0358800Y0215000D03*
X0358800Y0205000D03*
X0358800Y0195000D03*
X0358800Y0185000D03*
X0358800Y0175000D03*
X0358800Y0165000D03*
X0358800Y0155000D03*
X0408800Y0155000D03*
X0408800Y0165000D03*
X0408800Y0175000D03*
X0408800Y0185000D03*
X0408800Y0195000D03*
X0408800Y0205000D03*
X0408800Y0215000D03*
X0408800Y0225000D03*
X0408800Y0240000D03*
X0408800Y0250000D03*
X0408800Y0260000D03*
X0408800Y0270000D03*
X0408800Y0280000D03*
X0408800Y0290000D03*
X0408800Y0300000D03*
X0408800Y0310000D03*
X0438800Y0310000D03*
X0438800Y0300000D03*
X0438800Y0290000D03*
X0438800Y0280000D03*
X0438800Y0270000D03*
X0438800Y0260000D03*
X0438800Y0250000D03*
X0438800Y0240000D03*
X0438800Y0225000D03*
X0438800Y0215000D03*
X0438800Y0205000D03*
X0438800Y0195000D03*
X0438800Y0185000D03*
X0438800Y0175000D03*
X0438800Y0165000D03*
X0438800Y0155000D03*
X0488800Y0155000D03*
X0488800Y0165000D03*
X0488800Y0175000D03*
X0488800Y0185000D03*
X0488800Y0195000D03*
X0488800Y0205000D03*
X0488800Y0215000D03*
X0488800Y0225000D03*
X0488800Y0240000D03*
X0488800Y0250000D03*
X0488800Y0260000D03*
X0488800Y0270000D03*
X0488800Y0280000D03*
X0488800Y0290000D03*
X0488800Y0300000D03*
X0488800Y0310000D03*
X0358800Y0310000D03*
X0358800Y0300000D03*
X0358800Y0290000D03*
D16*
X0344800Y0290000D03*
X0334700Y0290000D03*
X0334700Y0280000D03*
X0344800Y0280000D03*
X0344800Y0270000D03*
X0334700Y0270000D03*
X0334700Y0300000D03*
X0344800Y0300000D03*
X0419300Y0289800D03*
X0429400Y0289800D03*
X0429400Y0279800D03*
X0419300Y0279800D03*
X0419300Y0269800D03*
X0429400Y0269800D03*
X0429400Y0259800D03*
X0419300Y0259800D03*
X0423800Y0205000D03*
X0423800Y0195000D03*
X0423800Y0185000D03*
X0423800Y0175000D03*
X0343800Y0175000D03*
X0343800Y0165000D03*
X0343800Y0185000D03*
X0343800Y0195000D03*
X0202300Y0247100D03*
X0202300Y0257100D03*
X0202300Y0267100D03*
X0202300Y0277100D03*
X0043550Y0062650D03*
X0033550Y0062650D03*
X0023550Y0062650D03*
X0013550Y0062650D03*
X0069300Y0052000D03*
X0079300Y0052000D03*
X0089300Y0052000D03*
X0099300Y0052000D03*
D17*
X0086700Y0085400D03*
X0076700Y0085400D03*
X0066700Y0085400D03*
X0036700Y0050800D03*
X0026700Y0050800D03*
X0016700Y0050800D03*
X0142100Y0216800D03*
X0152100Y0216800D03*
X0162100Y0216800D03*
X0162100Y0226800D03*
X0152100Y0226800D03*
X0142100Y0226800D03*
X0142100Y0237000D03*
X0152100Y0237000D03*
X0162100Y0237000D03*
X0162100Y0247000D03*
X0152100Y0247000D03*
X0142100Y0247000D03*
X0142100Y0257000D03*
X0152100Y0257000D03*
X0162100Y0257000D03*
X0172100Y0257000D03*
X0182100Y0257000D03*
X0192300Y0257000D03*
X0192300Y0247000D03*
X0182100Y0247000D03*
X0172100Y0247000D03*
X0172100Y0267000D03*
X0182100Y0267000D03*
X0192300Y0267000D03*
X0162100Y0267000D03*
X0152100Y0267000D03*
X0142100Y0267000D03*
X0388800Y0250000D03*
X0468800Y0250000D03*
X0468800Y0165000D03*
X0388800Y0165000D03*
D18*
X0378800Y0165000D03*
X0378800Y0175000D03*
X0388800Y0175000D03*
X0388800Y0185000D03*
X0378800Y0185000D03*
X0458800Y0185000D03*
X0468800Y0185000D03*
X0468800Y0175000D03*
X0458800Y0175000D03*
X0458800Y0165000D03*
X0458800Y0250000D03*
X0458800Y0260000D03*
X0468800Y0260000D03*
X0468800Y0270000D03*
X0458800Y0270000D03*
X0388800Y0270000D03*
X0378800Y0270000D03*
X0378800Y0260000D03*
X0388800Y0260000D03*
X0378800Y0250000D03*
D19*
X0303493Y0307000D03*
X0289713Y0307000D03*
X0300107Y0070000D03*
X0313887Y0070000D03*
X0327707Y0070000D03*
X0341487Y0070000D03*
X0355307Y0070000D03*
X0369087Y0070000D03*
X0382907Y0070000D03*
X0396687Y0070000D03*
D20*
X0394430Y0210000D03*
X0373170Y0210000D03*
X0453170Y0210000D03*
X0474430Y0210000D03*
X0474430Y0295000D03*
X0453170Y0295000D03*
X0394430Y0295000D03*
X0373170Y0295000D03*
D21*
X0380060Y0240000D03*
X0387540Y0240000D03*
X0460060Y0240000D03*
X0467540Y0240000D03*
X0467540Y0155000D03*
X0460060Y0155000D03*
X0387540Y0155000D03*
X0380060Y0155000D03*
X0259540Y0089000D03*
X0252060Y0089000D03*
X0252060Y0079000D03*
X0259540Y0079000D03*
X0259540Y0069000D03*
X0252060Y0069000D03*
X0252060Y0059000D03*
X0259540Y0059000D03*
X0066040Y0066000D03*
X0058560Y0066000D03*
X0058560Y0075000D03*
X0066040Y0075000D03*
D22*
X0303800Y0156260D03*
X0313800Y0156260D03*
X0323800Y0156260D03*
X0333800Y0156260D03*
X0333800Y0163740D03*
X0333800Y0171260D03*
X0333800Y0178740D03*
X0323800Y0178740D03*
X0323800Y0171260D03*
X0323800Y0163740D03*
X0313800Y0163740D03*
X0313800Y0171260D03*
X0313800Y0178740D03*
X0303800Y0178740D03*
X0303800Y0171260D03*
X0303800Y0163740D03*
X0257300Y0239260D03*
X0257300Y0246740D03*
X0423800Y0248740D03*
X0423800Y0241260D03*
X0498800Y0241260D03*
X0498800Y0248740D03*
X0498800Y0163740D03*
X0498800Y0156260D03*
X0423800Y0156260D03*
X0423800Y0163740D03*
D23*
X0427600Y0121000D02*
X0434000Y0121000D01*
X0434000Y0111000D02*
X0427600Y0111000D01*
X0427600Y0101000D02*
X0434000Y0101000D01*
X0395000Y0101000D02*
X0388600Y0101000D01*
X0388600Y0111000D02*
X0395000Y0111000D01*
X0395000Y0121000D02*
X0388600Y0121000D01*
X0351000Y0120000D02*
X0344600Y0120000D01*
X0344600Y0110000D02*
X0351000Y0110000D01*
X0351000Y0100000D02*
X0344600Y0100000D01*
X0308000Y0100000D02*
X0301600Y0100000D01*
X0301600Y0110000D02*
X0308000Y0110000D01*
X0308000Y0120000D02*
X0301600Y0120000D01*
D24*
X0274934Y0089000D03*
X0266666Y0089000D03*
X0266666Y0079000D03*
X0274934Y0079000D03*
X0274934Y0069000D03*
X0266666Y0069000D03*
X0266666Y0059000D03*
X0274934Y0059000D03*
X0257300Y0255866D03*
X0257300Y0264134D03*
D25*
X0301713Y0250000D03*
X0315887Y0250000D03*
X0315887Y0279000D03*
X0301713Y0279000D03*
X0301713Y0220000D03*
X0315887Y0220000D03*
X0315887Y0192000D03*
X0301713Y0192000D03*
D26*
X0304863Y0206000D03*
X0312737Y0206000D03*
X0312737Y0235000D03*
X0304863Y0235000D03*
X0304863Y0265000D03*
X0312737Y0265000D03*
D27*
X0321800Y0290063D03*
X0321800Y0297937D03*
D28*
X0333800Y0245000D03*
X0343800Y0245000D03*
X0343800Y0235000D03*
X0333800Y0235000D03*
X0333800Y0225000D03*
X0343800Y0225000D03*
X0343800Y0215000D03*
X0333800Y0215000D03*
X0106400Y0075500D03*
X0096400Y0075500D03*
X0086400Y0075500D03*
X0076400Y0075500D03*
X0076400Y0065500D03*
X0086400Y0065500D03*
X0096400Y0065500D03*
X0106400Y0065500D03*
X0043600Y0072700D03*
X0033600Y0072700D03*
X0023600Y0072700D03*
X0013600Y0072700D03*
X0013600Y0082700D03*
X0023600Y0082700D03*
X0033600Y0082700D03*
X0043600Y0082700D03*
X0418300Y0062000D03*
X0428300Y0062000D03*
X0438300Y0062000D03*
X0448300Y0062000D03*
X0448300Y0052000D03*
X0438300Y0052000D03*
X0428300Y0052000D03*
X0418300Y0052000D03*
D29*
X0190246Y0278000D03*
X0183554Y0278000D03*
X0169246Y0278000D03*
X0162554Y0278000D03*
X0146246Y0278000D03*
X0139554Y0278000D03*
D30*
X0149332Y0303537D02*
X0150007Y0302862D01*
X0148430Y0301279D01*
X0146197Y0301276D01*
X0144614Y0302853D01*
X0144611Y0305086D01*
X0146188Y0306669D01*
X0148421Y0306672D01*
X0150004Y0305095D01*
X0150007Y0302862D01*
X0148996Y0303279D01*
X0148009Y0302290D01*
X0146614Y0302287D01*
X0145625Y0303274D01*
X0145622Y0304669D01*
X0146609Y0305658D01*
X0148004Y0305661D01*
X0148993Y0304674D01*
X0148996Y0303279D01*
X0147983Y0303697D01*
X0147589Y0303301D01*
X0147032Y0303300D01*
X0146636Y0303694D01*
X0146635Y0304251D01*
X0147029Y0304647D01*
X0147586Y0304648D01*
X0147982Y0304254D01*
X0147983Y0303697D01*
X0159332Y0303554D02*
X0160007Y0302879D01*
X0158430Y0301296D01*
X0156197Y0301293D01*
X0154614Y0302870D01*
X0154611Y0305103D01*
X0156188Y0306686D01*
X0158421Y0306689D01*
X0160004Y0305112D01*
X0160007Y0302879D01*
X0158996Y0303296D01*
X0158009Y0302307D01*
X0156614Y0302304D01*
X0155625Y0303291D01*
X0155622Y0304686D01*
X0156609Y0305675D01*
X0158004Y0305678D01*
X0158993Y0304691D01*
X0158996Y0303296D01*
X0157983Y0303714D01*
X0157589Y0303318D01*
X0157032Y0303317D01*
X0156636Y0303711D01*
X0156635Y0304268D01*
X0157029Y0304664D01*
X0157586Y0304665D01*
X0157982Y0304271D01*
X0157983Y0303714D01*
X0169332Y0303572D02*
X0170007Y0302897D01*
X0168430Y0301314D01*
X0166197Y0301311D01*
X0164614Y0302888D01*
X0164611Y0305121D01*
X0166188Y0306704D01*
X0168421Y0306707D01*
X0170004Y0305130D01*
X0170007Y0302897D01*
X0168996Y0303314D01*
X0168009Y0302325D01*
X0166614Y0302322D01*
X0165625Y0303309D01*
X0165622Y0304704D01*
X0166609Y0305693D01*
X0168004Y0305696D01*
X0168993Y0304709D01*
X0168996Y0303314D01*
X0167983Y0303732D01*
X0167589Y0303336D01*
X0167032Y0303335D01*
X0166636Y0303729D01*
X0166635Y0304286D01*
X0167029Y0304682D01*
X0167586Y0304683D01*
X0167982Y0304289D01*
X0167983Y0303732D01*
X0179332Y0303589D02*
X0180007Y0302914D01*
X0178430Y0301331D01*
X0176197Y0301328D01*
X0174614Y0302905D01*
X0174611Y0305138D01*
X0176188Y0306721D01*
X0178421Y0306724D01*
X0180004Y0305147D01*
X0180007Y0302914D01*
X0178996Y0303331D01*
X0178009Y0302342D01*
X0176614Y0302339D01*
X0175625Y0303326D01*
X0175622Y0304721D01*
X0176609Y0305710D01*
X0178004Y0305713D01*
X0178993Y0304726D01*
X0178996Y0303331D01*
X0177983Y0303749D01*
X0177589Y0303353D01*
X0177032Y0303352D01*
X0176636Y0303746D01*
X0176635Y0304303D01*
X0177029Y0304699D01*
X0177586Y0304700D01*
X0177982Y0304306D01*
X0177983Y0303749D01*
X0189332Y0303607D02*
X0190007Y0302932D01*
X0188430Y0301349D01*
X0186197Y0301346D01*
X0184614Y0302923D01*
X0184611Y0305156D01*
X0186188Y0306739D01*
X0188421Y0306742D01*
X0190004Y0305165D01*
X0190007Y0302932D01*
X0188996Y0303349D01*
X0188009Y0302360D01*
X0186614Y0302357D01*
X0185625Y0303344D01*
X0185622Y0304739D01*
X0186609Y0305728D01*
X0188004Y0305731D01*
X0188993Y0304744D01*
X0188996Y0303349D01*
X0187983Y0303767D01*
X0187589Y0303371D01*
X0187032Y0303370D01*
X0186636Y0303764D01*
X0186635Y0304321D01*
X0187029Y0304717D01*
X0187586Y0304718D01*
X0187982Y0304324D01*
X0187983Y0303767D01*
X0189314Y0313607D02*
X0189989Y0312932D01*
X0188412Y0311349D01*
X0186179Y0311346D01*
X0184596Y0312923D01*
X0184593Y0315156D01*
X0186170Y0316739D01*
X0188403Y0316742D01*
X0189986Y0315165D01*
X0189989Y0312932D01*
X0188978Y0313349D01*
X0187991Y0312360D01*
X0186596Y0312357D01*
X0185607Y0313344D01*
X0185604Y0314739D01*
X0186591Y0315728D01*
X0187986Y0315731D01*
X0188975Y0314744D01*
X0188978Y0313349D01*
X0187965Y0313767D01*
X0187571Y0313371D01*
X0187014Y0313370D01*
X0186618Y0313764D01*
X0186617Y0314321D01*
X0187011Y0314717D01*
X0187568Y0314718D01*
X0187964Y0314324D01*
X0187965Y0313767D01*
X0179314Y0313589D02*
X0179989Y0312914D01*
X0178412Y0311331D01*
X0176179Y0311328D01*
X0174596Y0312905D01*
X0174593Y0315138D01*
X0176170Y0316721D01*
X0178403Y0316724D01*
X0179986Y0315147D01*
X0179989Y0312914D01*
X0178978Y0313331D01*
X0177991Y0312342D01*
X0176596Y0312339D01*
X0175607Y0313326D01*
X0175604Y0314721D01*
X0176591Y0315710D01*
X0177986Y0315713D01*
X0178975Y0314726D01*
X0178978Y0313331D01*
X0177965Y0313749D01*
X0177571Y0313353D01*
X0177014Y0313352D01*
X0176618Y0313746D01*
X0176617Y0314303D01*
X0177011Y0314699D01*
X0177568Y0314700D01*
X0177964Y0314306D01*
X0177965Y0313749D01*
X0169314Y0313572D02*
X0169989Y0312897D01*
X0168412Y0311314D01*
X0166179Y0311311D01*
X0164596Y0312888D01*
X0164593Y0315121D01*
X0166170Y0316704D01*
X0168403Y0316707D01*
X0169986Y0315130D01*
X0169989Y0312897D01*
X0168978Y0313314D01*
X0167991Y0312325D01*
X0166596Y0312322D01*
X0165607Y0313309D01*
X0165604Y0314704D01*
X0166591Y0315693D01*
X0167986Y0315696D01*
X0168975Y0314709D01*
X0168978Y0313314D01*
X0167965Y0313732D01*
X0167571Y0313336D01*
X0167014Y0313335D01*
X0166618Y0313729D01*
X0166617Y0314286D01*
X0167011Y0314682D01*
X0167568Y0314683D01*
X0167964Y0314289D01*
X0167965Y0313732D01*
X0159314Y0313554D02*
X0159989Y0312879D01*
X0158412Y0311296D01*
X0156179Y0311293D01*
X0154596Y0312870D01*
X0154593Y0315103D01*
X0156170Y0316686D01*
X0158403Y0316689D01*
X0159986Y0315112D01*
X0159989Y0312879D01*
X0158978Y0313296D01*
X0157991Y0312307D01*
X0156596Y0312304D01*
X0155607Y0313291D01*
X0155604Y0314686D01*
X0156591Y0315675D01*
X0157986Y0315678D01*
X0158975Y0314691D01*
X0158978Y0313296D01*
X0157965Y0313714D01*
X0157571Y0313318D01*
X0157014Y0313317D01*
X0156618Y0313711D01*
X0156617Y0314268D01*
X0157011Y0314664D01*
X0157568Y0314665D01*
X0157964Y0314271D01*
X0157965Y0313714D01*
X0149314Y0313537D02*
X0149989Y0312862D01*
X0148412Y0311279D01*
X0146179Y0311276D01*
X0144596Y0312853D01*
X0144593Y0315086D01*
X0146170Y0316669D01*
X0148403Y0316672D01*
X0149986Y0315095D01*
X0149989Y0312862D01*
X0148978Y0313279D01*
X0147991Y0312290D01*
X0146596Y0312287D01*
X0145607Y0313274D01*
X0145604Y0314669D01*
X0146591Y0315658D01*
X0147986Y0315661D01*
X0148975Y0314674D01*
X0148978Y0313279D01*
X0147965Y0313697D01*
X0147571Y0313301D01*
X0147014Y0313300D01*
X0146618Y0313694D01*
X0146617Y0314251D01*
X0147011Y0314647D01*
X0147568Y0314648D01*
X0147964Y0314254D01*
X0147965Y0313697D01*
X0218342Y0313622D02*
X0219017Y0312947D01*
X0217428Y0311376D01*
X0215195Y0311387D01*
X0213624Y0312976D01*
X0213635Y0315209D01*
X0215224Y0316780D01*
X0217457Y0316769D01*
X0219028Y0315180D01*
X0219017Y0312947D01*
X0218008Y0313372D01*
X0217015Y0312389D01*
X0215620Y0312396D01*
X0214637Y0313389D01*
X0214644Y0314784D01*
X0215637Y0315767D01*
X0217032Y0315760D01*
X0218015Y0314767D01*
X0218008Y0313372D01*
X0216998Y0313796D01*
X0216601Y0313403D01*
X0216044Y0313406D01*
X0215651Y0313803D01*
X0215654Y0314360D01*
X0216051Y0314753D01*
X0216608Y0314750D01*
X0217001Y0314353D01*
X0216998Y0313796D01*
X0228342Y0313570D02*
X0229017Y0312895D01*
X0227428Y0311324D01*
X0225195Y0311335D01*
X0223624Y0312924D01*
X0223635Y0315157D01*
X0225224Y0316728D01*
X0227457Y0316717D01*
X0229028Y0315128D01*
X0229017Y0312895D01*
X0228008Y0313320D01*
X0227015Y0312337D01*
X0225620Y0312344D01*
X0224637Y0313337D01*
X0224644Y0314732D01*
X0225637Y0315715D01*
X0227032Y0315708D01*
X0228015Y0314715D01*
X0228008Y0313320D01*
X0226998Y0313744D01*
X0226601Y0313351D01*
X0226044Y0313354D01*
X0225651Y0313751D01*
X0225654Y0314308D01*
X0226051Y0314701D01*
X0226608Y0314698D01*
X0227001Y0314301D01*
X0226998Y0313744D01*
X0238342Y0313518D02*
X0239017Y0312843D01*
X0237428Y0311272D01*
X0235195Y0311283D01*
X0233624Y0312872D01*
X0233635Y0315105D01*
X0235224Y0316676D01*
X0237457Y0316665D01*
X0239028Y0315076D01*
X0239017Y0312843D01*
X0238008Y0313268D01*
X0237015Y0312285D01*
X0235620Y0312292D01*
X0234637Y0313285D01*
X0234644Y0314680D01*
X0235637Y0315663D01*
X0237032Y0315656D01*
X0238015Y0314663D01*
X0238008Y0313268D01*
X0236998Y0313692D01*
X0236601Y0313299D01*
X0236044Y0313302D01*
X0235651Y0313699D01*
X0235654Y0314256D01*
X0236051Y0314649D01*
X0236608Y0314646D01*
X0237001Y0314249D01*
X0236998Y0313692D01*
X0248342Y0313465D02*
X0249017Y0312790D01*
X0247428Y0311219D01*
X0245195Y0311230D01*
X0243624Y0312819D01*
X0243635Y0315052D01*
X0245224Y0316623D01*
X0247457Y0316612D01*
X0249028Y0315023D01*
X0249017Y0312790D01*
X0248008Y0313215D01*
X0247015Y0312232D01*
X0245620Y0312239D01*
X0244637Y0313232D01*
X0244644Y0314627D01*
X0245637Y0315610D01*
X0247032Y0315603D01*
X0248015Y0314610D01*
X0248008Y0313215D01*
X0246998Y0313639D01*
X0246601Y0313246D01*
X0246044Y0313249D01*
X0245651Y0313646D01*
X0245654Y0314203D01*
X0246051Y0314596D01*
X0246608Y0314593D01*
X0247001Y0314196D01*
X0246998Y0313639D01*
X0258342Y0313413D02*
X0259017Y0312738D01*
X0257428Y0311167D01*
X0255195Y0311178D01*
X0253624Y0312767D01*
X0253635Y0315000D01*
X0255224Y0316571D01*
X0257457Y0316560D01*
X0259028Y0314971D01*
X0259017Y0312738D01*
X0258008Y0313163D01*
X0257015Y0312180D01*
X0255620Y0312187D01*
X0254637Y0313180D01*
X0254644Y0314575D01*
X0255637Y0315558D01*
X0257032Y0315551D01*
X0258015Y0314558D01*
X0258008Y0313163D01*
X0256998Y0313587D01*
X0256601Y0313194D01*
X0256044Y0313197D01*
X0255651Y0313594D01*
X0255654Y0314151D01*
X0256051Y0314544D01*
X0256608Y0314541D01*
X0257001Y0314144D01*
X0256998Y0313587D01*
X0258289Y0303413D02*
X0258964Y0302738D01*
X0257375Y0301167D01*
X0255142Y0301178D01*
X0253571Y0302767D01*
X0253582Y0305000D01*
X0255171Y0306571D01*
X0257404Y0306560D01*
X0258975Y0304971D01*
X0258964Y0302738D01*
X0257955Y0303163D01*
X0256962Y0302180D01*
X0255567Y0302187D01*
X0254584Y0303180D01*
X0254591Y0304575D01*
X0255584Y0305558D01*
X0256979Y0305551D01*
X0257962Y0304558D01*
X0257955Y0303163D01*
X0256945Y0303587D01*
X0256548Y0303194D01*
X0255991Y0303197D01*
X0255598Y0303594D01*
X0255601Y0304151D01*
X0255998Y0304544D01*
X0256555Y0304541D01*
X0256948Y0304144D01*
X0256945Y0303587D01*
X0248290Y0303466D02*
X0248965Y0302791D01*
X0247376Y0301220D01*
X0245143Y0301231D01*
X0243572Y0302820D01*
X0243583Y0305053D01*
X0245172Y0306624D01*
X0247405Y0306613D01*
X0248976Y0305024D01*
X0248965Y0302791D01*
X0247956Y0303216D01*
X0246963Y0302233D01*
X0245568Y0302240D01*
X0244585Y0303233D01*
X0244592Y0304628D01*
X0245585Y0305611D01*
X0246980Y0305604D01*
X0247963Y0304611D01*
X0247956Y0303216D01*
X0246946Y0303640D01*
X0246549Y0303247D01*
X0245992Y0303250D01*
X0245599Y0303647D01*
X0245602Y0304204D01*
X0245999Y0304597D01*
X0246556Y0304594D01*
X0246949Y0304197D01*
X0246946Y0303640D01*
X0238290Y0303518D02*
X0238965Y0302843D01*
X0237376Y0301272D01*
X0235143Y0301283D01*
X0233572Y0302872D01*
X0233583Y0305105D01*
X0235172Y0306676D01*
X0237405Y0306665D01*
X0238976Y0305076D01*
X0238965Y0302843D01*
X0237956Y0303268D01*
X0236963Y0302285D01*
X0235568Y0302292D01*
X0234585Y0303285D01*
X0234592Y0304680D01*
X0235585Y0305663D01*
X0236980Y0305656D01*
X0237963Y0304663D01*
X0237956Y0303268D01*
X0236946Y0303692D01*
X0236549Y0303299D01*
X0235992Y0303302D01*
X0235599Y0303699D01*
X0235602Y0304256D01*
X0235999Y0304649D01*
X0236556Y0304646D01*
X0236949Y0304249D01*
X0236946Y0303692D01*
X0228290Y0303570D02*
X0228965Y0302895D01*
X0227376Y0301324D01*
X0225143Y0301335D01*
X0223572Y0302924D01*
X0223583Y0305157D01*
X0225172Y0306728D01*
X0227405Y0306717D01*
X0228976Y0305128D01*
X0228965Y0302895D01*
X0227956Y0303320D01*
X0226963Y0302337D01*
X0225568Y0302344D01*
X0224585Y0303337D01*
X0224592Y0304732D01*
X0225585Y0305715D01*
X0226980Y0305708D01*
X0227963Y0304715D01*
X0227956Y0303320D01*
X0226946Y0303744D01*
X0226549Y0303351D01*
X0225992Y0303354D01*
X0225599Y0303751D01*
X0225602Y0304308D01*
X0225999Y0304701D01*
X0226556Y0304698D01*
X0226949Y0304301D01*
X0226946Y0303744D01*
X0218290Y0303623D02*
X0218965Y0302948D01*
X0217376Y0301377D01*
X0215143Y0301388D01*
X0213572Y0302977D01*
X0213583Y0305210D01*
X0215172Y0306781D01*
X0217405Y0306770D01*
X0218976Y0305181D01*
X0218965Y0302948D01*
X0217956Y0303373D01*
X0216963Y0302390D01*
X0215568Y0302397D01*
X0214585Y0303390D01*
X0214592Y0304785D01*
X0215585Y0305768D01*
X0216980Y0305761D01*
X0217963Y0304768D01*
X0217956Y0303373D01*
X0216946Y0303797D01*
X0216549Y0303404D01*
X0215992Y0303407D01*
X0215599Y0303804D01*
X0215602Y0304361D01*
X0215999Y0304754D01*
X0216556Y0304751D01*
X0216949Y0304354D01*
X0216946Y0303797D01*
D31*
X0266772Y0290000D02*
X0275828Y0290000D01*
X0275828Y0250000D02*
X0266772Y0250000D01*
D32*
X0196900Y0232000D03*
X0186900Y0232000D03*
X0186900Y0222000D03*
X0196900Y0222000D03*
X0128900Y0075800D03*
D33*
X0465953Y0072413D02*
X0465213Y0071673D01*
X0465208Y0074124D01*
X0466939Y0075861D01*
X0469390Y0075866D01*
X0471127Y0074135D01*
X0471132Y0071684D01*
X0469401Y0069947D01*
X0466950Y0069942D01*
X0465213Y0071673D01*
X0466322Y0072135D01*
X0466319Y0073667D01*
X0467401Y0074752D01*
X0468933Y0074755D01*
X0470018Y0073673D01*
X0470021Y0072141D01*
X0468939Y0071056D01*
X0467407Y0071053D01*
X0466322Y0072135D01*
X0467431Y0072596D01*
X0467430Y0073209D01*
X0467862Y0073643D01*
X0468475Y0073644D01*
X0468909Y0073212D01*
X0468910Y0072599D01*
X0468478Y0072165D01*
X0467865Y0072164D01*
X0467431Y0072596D01*
X0473037Y0065355D02*
X0472297Y0064615D01*
X0472292Y0067066D01*
X0474023Y0068803D01*
X0476474Y0068808D01*
X0478211Y0067077D01*
X0478216Y0064626D01*
X0476485Y0062889D01*
X0474034Y0062884D01*
X0472297Y0064615D01*
X0473406Y0065077D01*
X0473403Y0066609D01*
X0474485Y0067694D01*
X0476017Y0067697D01*
X0477102Y0066615D01*
X0477105Y0065083D01*
X0476023Y0063998D01*
X0474491Y0063995D01*
X0473406Y0065077D01*
X0474515Y0065538D01*
X0474514Y0066151D01*
X0474946Y0066585D01*
X0475559Y0066586D01*
X0475993Y0066154D01*
X0475994Y0065541D01*
X0475562Y0065107D01*
X0474949Y0065106D01*
X0474515Y0065538D01*
X0480095Y0072438D02*
X0479355Y0071698D01*
X0479350Y0074149D01*
X0481081Y0075886D01*
X0483532Y0075891D01*
X0485269Y0074160D01*
X0485274Y0071709D01*
X0483543Y0069972D01*
X0481092Y0069967D01*
X0479355Y0071698D01*
X0480464Y0072160D01*
X0480461Y0073692D01*
X0481543Y0074777D01*
X0483075Y0074780D01*
X0484160Y0073698D01*
X0484163Y0072166D01*
X0483081Y0071081D01*
X0481549Y0071078D01*
X0480464Y0072160D01*
X0481573Y0072621D01*
X0481572Y0073234D01*
X0482004Y0073668D01*
X0482617Y0073669D01*
X0483051Y0073237D01*
X0483052Y0072624D01*
X0482620Y0072190D01*
X0482007Y0072189D01*
X0481573Y0072621D01*
X0473012Y0079497D02*
X0472272Y0078757D01*
X0472267Y0081208D01*
X0473998Y0082945D01*
X0476449Y0082950D01*
X0478186Y0081219D01*
X0478191Y0078768D01*
X0476460Y0077031D01*
X0474009Y0077026D01*
X0472272Y0078757D01*
X0473381Y0079219D01*
X0473378Y0080751D01*
X0474460Y0081836D01*
X0475992Y0081839D01*
X0477077Y0080757D01*
X0477080Y0079225D01*
X0475998Y0078140D01*
X0474466Y0078137D01*
X0473381Y0079219D01*
X0474490Y0079680D01*
X0474489Y0080293D01*
X0474921Y0080727D01*
X0475534Y0080728D01*
X0475968Y0080296D01*
X0475969Y0079683D01*
X0475537Y0079249D01*
X0474924Y0079248D01*
X0474490Y0079680D01*
X0480071Y0086580D02*
X0479331Y0085840D01*
X0479326Y0088291D01*
X0481057Y0090028D01*
X0483508Y0090033D01*
X0485245Y0088302D01*
X0485250Y0085851D01*
X0483519Y0084114D01*
X0481068Y0084109D01*
X0479331Y0085840D01*
X0480440Y0086302D01*
X0480437Y0087834D01*
X0481519Y0088919D01*
X0483051Y0088922D01*
X0484136Y0087840D01*
X0484139Y0086308D01*
X0483057Y0085223D01*
X0481525Y0085220D01*
X0480440Y0086302D01*
X0481549Y0086763D01*
X0481548Y0087376D01*
X0481980Y0087810D01*
X0482593Y0087811D01*
X0483027Y0087379D01*
X0483028Y0086766D01*
X0482596Y0086332D01*
X0481983Y0086331D01*
X0481549Y0086763D01*
X0487154Y0079521D02*
X0486414Y0078781D01*
X0486409Y0081232D01*
X0488140Y0082969D01*
X0490591Y0082974D01*
X0492328Y0081243D01*
X0492333Y0078792D01*
X0490602Y0077055D01*
X0488151Y0077050D01*
X0486414Y0078781D01*
X0487523Y0079243D01*
X0487520Y0080775D01*
X0488602Y0081860D01*
X0490134Y0081863D01*
X0491219Y0080781D01*
X0491222Y0079249D01*
X0490140Y0078164D01*
X0488608Y0078161D01*
X0487523Y0079243D01*
X0488632Y0079704D01*
X0488631Y0080317D01*
X0489063Y0080751D01*
X0489676Y0080752D01*
X0490110Y0080320D01*
X0490111Y0079707D01*
X0489679Y0079273D01*
X0489066Y0079272D01*
X0488632Y0079704D01*
X0494213Y0086605D02*
X0493473Y0085865D01*
X0493468Y0088316D01*
X0495199Y0090053D01*
X0497650Y0090058D01*
X0499387Y0088327D01*
X0499392Y0085876D01*
X0497661Y0084139D01*
X0495210Y0084134D01*
X0493473Y0085865D01*
X0494582Y0086327D01*
X0494579Y0087859D01*
X0495661Y0088944D01*
X0497193Y0088947D01*
X0498278Y0087865D01*
X0498281Y0086333D01*
X0497199Y0085248D01*
X0495667Y0085245D01*
X0494582Y0086327D01*
X0495691Y0086788D01*
X0495690Y0087401D01*
X0496122Y0087835D01*
X0496735Y0087836D01*
X0497169Y0087404D01*
X0497170Y0086791D01*
X0496738Y0086357D01*
X0496125Y0086356D01*
X0495691Y0086788D01*
X0487129Y0093663D02*
X0486389Y0092923D01*
X0486384Y0095374D01*
X0488115Y0097111D01*
X0490566Y0097116D01*
X0492303Y0095385D01*
X0492308Y0092934D01*
X0490577Y0091197D01*
X0488126Y0091192D01*
X0486389Y0092923D01*
X0487498Y0093385D01*
X0487495Y0094917D01*
X0488577Y0096002D01*
X0490109Y0096005D01*
X0491194Y0094923D01*
X0491197Y0093391D01*
X0490115Y0092306D01*
X0488583Y0092303D01*
X0487498Y0093385D01*
X0488607Y0093846D01*
X0488606Y0094459D01*
X0489038Y0094893D01*
X0489651Y0094894D01*
X0490085Y0094462D01*
X0490086Y0093849D01*
X0489654Y0093415D01*
X0489041Y0093414D01*
X0488607Y0093846D01*
M02*
