G75*
%MOIN*%
%OFA0B0*%
%FSLAX25Y25*%
%IPPOS*%
%LPD*%
%AMOC8*
5,1,8,0,0,1.08239X$1,22.5*
%
%ADD10C,0.01600*%
%ADD11C,0.01200*%
%ADD12C,0.00600*%
%ADD13C,0.00800*%
%ADD14OC8,0.06743*%
%ADD15R,0.08200X0.08200*%
%ADD16C,0.08200*%
%ADD17C,0.06743*%
%ADD18C,0.07800*%
%ADD19C,0.07200*%
%ADD20OC8,0.07200*%
%ADD21C,0.09400*%
%ADD22OC8,0.07400*%
%ADD23C,0.01349*%
%ADD24C,0.09855*%
%ADD25OC8,0.08400*%
%ADD26C,0.01480*%
D10*
X0002800Y0040700D02*
X0461300Y0041000D01*
X0464300Y0044000D01*
X0512800Y0092000D01*
X0512800Y0330000D01*
X0218800Y0330000D01*
X0218700Y0330000D02*
X0132300Y0330000D01*
X0132300Y0206000D01*
X0217900Y0206000D01*
X0217900Y0095600D01*
X0217200Y0094800D02*
X0002800Y0093500D01*
X0002800Y0040700D01*
D11*
X0217300Y0095000D02*
X0218300Y0096000D01*
D12*
X0257300Y0096070D02*
X0273771Y0096070D01*
X0273760Y0095472D02*
X0257300Y0095472D01*
X0257300Y0094873D02*
X0273750Y0094873D01*
X0273739Y0094275D02*
X0257300Y0094275D01*
X0257300Y0093676D02*
X0273728Y0093676D01*
X0273717Y0093078D02*
X0257300Y0093078D01*
X0257300Y0092479D02*
X0273706Y0092479D01*
X0273695Y0091881D02*
X0257300Y0091881D01*
X0257300Y0091282D02*
X0273685Y0091282D01*
X0273674Y0090684D02*
X0257300Y0090684D01*
X0257300Y0090085D02*
X0273663Y0090085D01*
X0273652Y0089487D02*
X0257300Y0089487D01*
X0257300Y0088888D02*
X0273641Y0088888D01*
X0273631Y0088290D02*
X0257300Y0088290D01*
X0257300Y0087691D02*
X0273620Y0087691D01*
X0273609Y0087093D02*
X0257300Y0087093D01*
X0257300Y0086494D02*
X0273598Y0086494D01*
X0273587Y0085896D02*
X0257300Y0085896D01*
X0257300Y0085297D02*
X0273576Y0085297D01*
X0273566Y0084699D02*
X0257300Y0084699D01*
X0257300Y0084100D02*
X0273555Y0084100D01*
X0273544Y0083502D02*
X0257300Y0083502D01*
X0257300Y0082903D02*
X0273533Y0082903D01*
X0273522Y0082305D02*
X0257300Y0082305D01*
X0257300Y0081706D02*
X0273512Y0081706D01*
X0273501Y0081108D02*
X0257300Y0081108D01*
X0257300Y0080509D02*
X0273490Y0080509D01*
X0273479Y0079911D02*
X0257300Y0079911D01*
X0257300Y0079312D02*
X0273468Y0079312D01*
X0273457Y0078714D02*
X0257300Y0078714D01*
X0257300Y0078115D02*
X0273447Y0078115D01*
X0273436Y0077517D02*
X0257300Y0077517D01*
X0257300Y0076918D02*
X0273425Y0076918D01*
X0273414Y0076320D02*
X0257300Y0076320D01*
X0257300Y0075721D02*
X0273403Y0075721D01*
X0273393Y0075123D02*
X0257300Y0075123D01*
X0257300Y0074524D02*
X0273382Y0074524D01*
X0273371Y0073926D02*
X0257300Y0073926D01*
X0257300Y0073327D02*
X0273360Y0073327D01*
X0273349Y0072729D02*
X0257300Y0072729D01*
X0257300Y0072130D02*
X0273338Y0072130D01*
X0273328Y0071532D02*
X0257300Y0071532D01*
X0257300Y0070933D02*
X0273317Y0070933D01*
X0273306Y0070334D02*
X0257300Y0070334D01*
X0257300Y0069736D02*
X0273564Y0069736D01*
X0273300Y0070000D02*
X0276300Y0236000D01*
X0276300Y0245000D01*
X0265300Y0245000D01*
X0262300Y0248000D01*
X0257300Y0243000D01*
X0257300Y0055000D01*
X0268300Y0044000D01*
X0373300Y0044000D01*
X0388300Y0059000D01*
X0388300Y0070000D01*
X0387300Y0071000D01*
X0378300Y0071000D01*
X0370300Y0063000D01*
X0368300Y0063000D01*
X0362300Y0069000D01*
X0362300Y0070000D01*
X0351300Y0070000D01*
X0344300Y0063000D01*
X0339300Y0063000D01*
X0333300Y0069000D01*
X0333300Y0071000D01*
X0324300Y0071000D01*
X0318300Y0065000D01*
X0309300Y0065000D01*
X0301300Y0073000D01*
X0296300Y0073000D01*
X0287300Y0064000D01*
X0279300Y0064000D01*
X0273300Y0070000D01*
X0274163Y0069137D02*
X0257300Y0069137D01*
X0257300Y0068539D02*
X0274761Y0068539D01*
X0275360Y0067940D02*
X0257300Y0067940D01*
X0257300Y0067342D02*
X0275958Y0067342D01*
X0276557Y0066743D02*
X0257300Y0066743D01*
X0257300Y0066145D02*
X0277155Y0066145D01*
X0277754Y0065546D02*
X0257300Y0065546D01*
X0257300Y0064948D02*
X0278352Y0064948D01*
X0278951Y0064349D02*
X0257300Y0064349D01*
X0257300Y0063751D02*
X0338549Y0063751D01*
X0337951Y0064349D02*
X0287649Y0064349D01*
X0288248Y0064948D02*
X0337352Y0064948D01*
X0336754Y0065546D02*
X0318846Y0065546D01*
X0319445Y0066145D02*
X0336155Y0066145D01*
X0335557Y0066743D02*
X0320043Y0066743D01*
X0320642Y0067342D02*
X0334958Y0067342D01*
X0334360Y0067940D02*
X0321240Y0067940D01*
X0321839Y0068539D02*
X0333761Y0068539D01*
X0333300Y0069137D02*
X0322437Y0069137D01*
X0323036Y0069736D02*
X0333300Y0069736D01*
X0333300Y0070334D02*
X0323634Y0070334D01*
X0324233Y0070933D02*
X0333300Y0070933D01*
X0339148Y0063152D02*
X0257300Y0063152D01*
X0257300Y0062554D02*
X0388300Y0062554D01*
X0388300Y0063152D02*
X0370452Y0063152D01*
X0371051Y0063751D02*
X0388300Y0063751D01*
X0388300Y0064349D02*
X0371649Y0064349D01*
X0372248Y0064948D02*
X0388300Y0064948D01*
X0388300Y0065546D02*
X0372846Y0065546D01*
X0373445Y0066145D02*
X0388300Y0066145D01*
X0388300Y0066743D02*
X0374043Y0066743D01*
X0374642Y0067342D02*
X0388300Y0067342D01*
X0388300Y0067940D02*
X0375240Y0067940D01*
X0375839Y0068539D02*
X0388300Y0068539D01*
X0388300Y0069137D02*
X0376437Y0069137D01*
X0377036Y0069736D02*
X0388300Y0069736D01*
X0387966Y0070334D02*
X0377634Y0070334D01*
X0378233Y0070933D02*
X0387367Y0070933D01*
X0388300Y0061955D02*
X0257300Y0061955D01*
X0257300Y0061357D02*
X0388300Y0061357D01*
X0388300Y0060758D02*
X0257300Y0060758D01*
X0257300Y0060160D02*
X0388300Y0060160D01*
X0388300Y0059561D02*
X0257300Y0059561D01*
X0257300Y0058963D02*
X0388263Y0058963D01*
X0387664Y0058364D02*
X0257300Y0058364D01*
X0257300Y0057766D02*
X0387066Y0057766D01*
X0386467Y0057167D02*
X0257300Y0057167D01*
X0257300Y0056569D02*
X0385869Y0056569D01*
X0385270Y0055970D02*
X0257300Y0055970D01*
X0257300Y0055372D02*
X0384672Y0055372D01*
X0384073Y0054773D02*
X0257527Y0054773D01*
X0258125Y0054175D02*
X0383475Y0054175D01*
X0382876Y0053576D02*
X0258724Y0053576D01*
X0259322Y0052978D02*
X0382278Y0052978D01*
X0381679Y0052379D02*
X0259921Y0052379D01*
X0260519Y0051781D02*
X0381081Y0051781D01*
X0380482Y0051182D02*
X0261118Y0051182D01*
X0261716Y0050584D02*
X0379884Y0050584D01*
X0379285Y0049985D02*
X0262315Y0049985D01*
X0262913Y0049387D02*
X0378687Y0049387D01*
X0378088Y0048788D02*
X0263512Y0048788D01*
X0264110Y0048190D02*
X0377490Y0048190D01*
X0376891Y0047591D02*
X0264709Y0047591D01*
X0265307Y0046993D02*
X0376293Y0046993D01*
X0375694Y0046394D02*
X0265906Y0046394D01*
X0266504Y0045796D02*
X0375096Y0045796D01*
X0374497Y0045197D02*
X0267103Y0045197D01*
X0267701Y0044599D02*
X0373899Y0044599D01*
X0373300Y0044000D02*
X0268300Y0044000D01*
X0288846Y0065546D02*
X0308754Y0065546D01*
X0308155Y0066145D02*
X0289445Y0066145D01*
X0290043Y0066743D02*
X0307557Y0066743D01*
X0306958Y0067342D02*
X0290642Y0067342D01*
X0291240Y0067940D02*
X0306360Y0067940D01*
X0305761Y0068539D02*
X0291839Y0068539D01*
X0292437Y0069137D02*
X0305163Y0069137D01*
X0304564Y0069736D02*
X0293036Y0069736D01*
X0293634Y0070334D02*
X0303966Y0070334D01*
X0303367Y0070933D02*
X0294233Y0070933D01*
X0294832Y0071532D02*
X0302768Y0071532D01*
X0302170Y0072130D02*
X0295430Y0072130D01*
X0296029Y0072729D02*
X0301571Y0072729D01*
X0273782Y0096669D02*
X0257300Y0096669D01*
X0257300Y0097268D02*
X0273793Y0097268D01*
X0273804Y0097866D02*
X0257300Y0097866D01*
X0257300Y0098465D02*
X0273814Y0098465D01*
X0273825Y0099063D02*
X0257300Y0099063D01*
X0257300Y0099662D02*
X0273836Y0099662D01*
X0273847Y0100260D02*
X0257300Y0100260D01*
X0257300Y0100859D02*
X0273858Y0100859D01*
X0273868Y0101457D02*
X0257300Y0101457D01*
X0257300Y0102056D02*
X0273879Y0102056D01*
X0273890Y0102654D02*
X0257300Y0102654D01*
X0257300Y0103253D02*
X0273901Y0103253D01*
X0273912Y0103851D02*
X0257300Y0103851D01*
X0257300Y0104450D02*
X0273923Y0104450D01*
X0273933Y0105048D02*
X0257300Y0105048D01*
X0257300Y0105647D02*
X0273944Y0105647D01*
X0273955Y0106245D02*
X0257300Y0106245D01*
X0257300Y0106844D02*
X0273966Y0106844D01*
X0273977Y0107442D02*
X0257300Y0107442D01*
X0257300Y0108041D02*
X0273987Y0108041D01*
X0273998Y0108639D02*
X0257300Y0108639D01*
X0257300Y0109238D02*
X0274009Y0109238D01*
X0274020Y0109836D02*
X0257300Y0109836D01*
X0257300Y0110435D02*
X0274031Y0110435D01*
X0274042Y0111033D02*
X0257300Y0111033D01*
X0257300Y0111632D02*
X0274052Y0111632D01*
X0274063Y0112230D02*
X0257300Y0112230D01*
X0257300Y0112829D02*
X0274074Y0112829D01*
X0274085Y0113427D02*
X0257300Y0113427D01*
X0257300Y0114026D02*
X0274096Y0114026D01*
X0274106Y0114624D02*
X0257300Y0114624D01*
X0257300Y0115223D02*
X0274117Y0115223D01*
X0274128Y0115821D02*
X0257300Y0115821D01*
X0257300Y0116420D02*
X0274139Y0116420D01*
X0274150Y0117018D02*
X0257300Y0117018D01*
X0257300Y0117617D02*
X0274161Y0117617D01*
X0274171Y0118215D02*
X0257300Y0118215D01*
X0257300Y0118814D02*
X0274182Y0118814D01*
X0274193Y0119412D02*
X0257300Y0119412D01*
X0257300Y0120011D02*
X0274204Y0120011D01*
X0274215Y0120609D02*
X0257300Y0120609D01*
X0257300Y0121208D02*
X0274225Y0121208D01*
X0274236Y0121806D02*
X0257300Y0121806D01*
X0257300Y0122405D02*
X0274247Y0122405D01*
X0274258Y0123003D02*
X0257300Y0123003D01*
X0257300Y0123602D02*
X0274269Y0123602D01*
X0274280Y0124201D02*
X0257300Y0124201D01*
X0257300Y0124799D02*
X0274290Y0124799D01*
X0274301Y0125398D02*
X0257300Y0125398D01*
X0257300Y0125996D02*
X0274312Y0125996D01*
X0274323Y0126595D02*
X0257300Y0126595D01*
X0257300Y0127193D02*
X0274334Y0127193D01*
X0274344Y0127792D02*
X0257300Y0127792D01*
X0257300Y0128390D02*
X0274355Y0128390D01*
X0274366Y0128989D02*
X0257300Y0128989D01*
X0257300Y0129587D02*
X0274377Y0129587D01*
X0274388Y0130186D02*
X0257300Y0130186D01*
X0257300Y0130784D02*
X0274398Y0130784D01*
X0274409Y0131383D02*
X0257300Y0131383D01*
X0257300Y0131981D02*
X0274420Y0131981D01*
X0274431Y0132580D02*
X0257300Y0132580D01*
X0257300Y0133178D02*
X0274442Y0133178D01*
X0274453Y0133777D02*
X0257300Y0133777D01*
X0257300Y0134375D02*
X0274463Y0134375D01*
X0274474Y0134974D02*
X0257300Y0134974D01*
X0257300Y0135572D02*
X0274485Y0135572D01*
X0274496Y0136171D02*
X0257300Y0136171D01*
X0257300Y0136769D02*
X0274507Y0136769D01*
X0274517Y0137368D02*
X0257300Y0137368D01*
X0257300Y0137966D02*
X0274528Y0137966D01*
X0274539Y0138565D02*
X0257300Y0138565D01*
X0257300Y0139163D02*
X0274550Y0139163D01*
X0274561Y0139762D02*
X0257300Y0139762D01*
X0257300Y0140360D02*
X0274572Y0140360D01*
X0274582Y0140959D02*
X0257300Y0140959D01*
X0257300Y0141557D02*
X0274593Y0141557D01*
X0274604Y0142156D02*
X0257300Y0142156D01*
X0257300Y0142754D02*
X0274615Y0142754D01*
X0274626Y0143353D02*
X0257300Y0143353D01*
X0257300Y0143951D02*
X0274636Y0143951D01*
X0274647Y0144550D02*
X0257300Y0144550D01*
X0257300Y0145148D02*
X0274658Y0145148D01*
X0274669Y0145747D02*
X0257300Y0145747D01*
X0257300Y0146345D02*
X0274680Y0146345D01*
X0274691Y0146944D02*
X0257300Y0146944D01*
X0257300Y0147542D02*
X0274701Y0147542D01*
X0274712Y0148141D02*
X0257300Y0148141D01*
X0257300Y0148739D02*
X0274723Y0148739D01*
X0274734Y0149338D02*
X0257300Y0149338D01*
X0257300Y0149937D02*
X0274745Y0149937D01*
X0274755Y0150535D02*
X0257300Y0150535D01*
X0257300Y0151134D02*
X0274766Y0151134D01*
X0274777Y0151732D02*
X0257300Y0151732D01*
X0257300Y0152331D02*
X0274788Y0152331D01*
X0274799Y0152929D02*
X0257300Y0152929D01*
X0257300Y0153528D02*
X0274810Y0153528D01*
X0274820Y0154126D02*
X0257300Y0154126D01*
X0257300Y0154725D02*
X0274831Y0154725D01*
X0274842Y0155323D02*
X0257300Y0155323D01*
X0257300Y0155922D02*
X0274853Y0155922D01*
X0274864Y0156520D02*
X0257300Y0156520D01*
X0257300Y0157119D02*
X0274874Y0157119D01*
X0274885Y0157717D02*
X0257300Y0157717D01*
X0257300Y0158316D02*
X0274896Y0158316D01*
X0274907Y0158914D02*
X0257300Y0158914D01*
X0257300Y0159513D02*
X0274918Y0159513D01*
X0274929Y0160111D02*
X0257300Y0160111D01*
X0257300Y0160710D02*
X0274939Y0160710D01*
X0274950Y0161308D02*
X0257300Y0161308D01*
X0257300Y0161907D02*
X0274961Y0161907D01*
X0274972Y0162505D02*
X0257300Y0162505D01*
X0257300Y0163104D02*
X0274983Y0163104D01*
X0274993Y0163702D02*
X0257300Y0163702D01*
X0257300Y0164301D02*
X0275004Y0164301D01*
X0275015Y0164899D02*
X0257300Y0164899D01*
X0257300Y0165498D02*
X0275026Y0165498D01*
X0275037Y0166096D02*
X0257300Y0166096D01*
X0257300Y0166695D02*
X0275047Y0166695D01*
X0275058Y0167293D02*
X0257300Y0167293D01*
X0257300Y0167892D02*
X0275069Y0167892D01*
X0275080Y0168490D02*
X0257300Y0168490D01*
X0257300Y0169089D02*
X0275091Y0169089D01*
X0275102Y0169687D02*
X0257300Y0169687D01*
X0257300Y0170286D02*
X0275112Y0170286D01*
X0275123Y0170884D02*
X0257300Y0170884D01*
X0257300Y0171483D02*
X0275134Y0171483D01*
X0275145Y0172081D02*
X0257300Y0172081D01*
X0257300Y0172680D02*
X0275156Y0172680D01*
X0275166Y0173278D02*
X0257300Y0173278D01*
X0257300Y0173877D02*
X0275177Y0173877D01*
X0275188Y0174475D02*
X0257300Y0174475D01*
X0257300Y0175074D02*
X0275199Y0175074D01*
X0275210Y0175672D02*
X0257300Y0175672D01*
X0257300Y0176271D02*
X0275221Y0176271D01*
X0275231Y0176870D02*
X0257300Y0176870D01*
X0257300Y0177468D02*
X0275242Y0177468D01*
X0275253Y0178067D02*
X0257300Y0178067D01*
X0257300Y0178665D02*
X0275264Y0178665D01*
X0275275Y0179264D02*
X0257300Y0179264D01*
X0257300Y0179862D02*
X0275285Y0179862D01*
X0275296Y0180461D02*
X0257300Y0180461D01*
X0257300Y0181059D02*
X0275307Y0181059D01*
X0275318Y0181658D02*
X0257300Y0181658D01*
X0257300Y0182256D02*
X0275329Y0182256D01*
X0275340Y0182855D02*
X0257300Y0182855D01*
X0257300Y0183453D02*
X0275350Y0183453D01*
X0275361Y0184052D02*
X0257300Y0184052D01*
X0257300Y0184650D02*
X0275372Y0184650D01*
X0275383Y0185249D02*
X0257300Y0185249D01*
X0257300Y0185847D02*
X0275394Y0185847D01*
X0275404Y0186446D02*
X0257300Y0186446D01*
X0257300Y0187044D02*
X0275415Y0187044D01*
X0275426Y0187643D02*
X0257300Y0187643D01*
X0257300Y0188241D02*
X0275437Y0188241D01*
X0275448Y0188840D02*
X0257300Y0188840D01*
X0257300Y0189438D02*
X0275459Y0189438D01*
X0275469Y0190037D02*
X0257300Y0190037D01*
X0257300Y0190635D02*
X0275480Y0190635D01*
X0275491Y0191234D02*
X0257300Y0191234D01*
X0257300Y0191832D02*
X0275502Y0191832D01*
X0275513Y0192431D02*
X0257300Y0192431D01*
X0257300Y0193029D02*
X0275523Y0193029D01*
X0275534Y0193628D02*
X0257300Y0193628D01*
X0257300Y0194226D02*
X0275545Y0194226D01*
X0275556Y0194825D02*
X0257300Y0194825D01*
X0257300Y0195423D02*
X0275567Y0195423D01*
X0275577Y0196022D02*
X0257300Y0196022D01*
X0257300Y0196620D02*
X0275588Y0196620D01*
X0275599Y0197219D02*
X0257300Y0197219D01*
X0257300Y0197817D02*
X0275610Y0197817D01*
X0275621Y0198416D02*
X0257300Y0198416D01*
X0257300Y0199014D02*
X0275632Y0199014D01*
X0275642Y0199613D02*
X0257300Y0199613D01*
X0257300Y0200211D02*
X0275653Y0200211D01*
X0275664Y0200810D02*
X0257300Y0200810D01*
X0257300Y0201408D02*
X0275675Y0201408D01*
X0275686Y0202007D02*
X0257300Y0202007D01*
X0257300Y0202605D02*
X0275696Y0202605D01*
X0275707Y0203204D02*
X0257300Y0203204D01*
X0257300Y0203803D02*
X0275718Y0203803D01*
X0275729Y0204401D02*
X0257300Y0204401D01*
X0257300Y0205000D02*
X0275740Y0205000D01*
X0275751Y0205598D02*
X0257300Y0205598D01*
X0257300Y0206197D02*
X0275761Y0206197D01*
X0275772Y0206795D02*
X0257300Y0206795D01*
X0257300Y0207394D02*
X0275783Y0207394D01*
X0275794Y0207992D02*
X0257300Y0207992D01*
X0257300Y0208591D02*
X0275805Y0208591D01*
X0275815Y0209189D02*
X0257300Y0209189D01*
X0257300Y0209788D02*
X0275826Y0209788D01*
X0275837Y0210386D02*
X0257300Y0210386D01*
X0257300Y0210985D02*
X0275848Y0210985D01*
X0275859Y0211583D02*
X0257300Y0211583D01*
X0257300Y0212182D02*
X0275870Y0212182D01*
X0275880Y0212780D02*
X0257300Y0212780D01*
X0257300Y0213379D02*
X0275891Y0213379D01*
X0275902Y0213977D02*
X0257300Y0213977D01*
X0257300Y0214576D02*
X0275913Y0214576D01*
X0275924Y0215174D02*
X0257300Y0215174D01*
X0257300Y0215773D02*
X0275934Y0215773D01*
X0275945Y0216371D02*
X0257300Y0216371D01*
X0257300Y0216970D02*
X0275956Y0216970D01*
X0275967Y0217568D02*
X0257300Y0217568D01*
X0257300Y0218167D02*
X0275978Y0218167D01*
X0275989Y0218765D02*
X0257300Y0218765D01*
X0257300Y0219364D02*
X0275999Y0219364D01*
X0276010Y0219962D02*
X0257300Y0219962D01*
X0257300Y0220561D02*
X0276021Y0220561D01*
X0276032Y0221159D02*
X0257300Y0221159D01*
X0257300Y0221758D02*
X0276043Y0221758D01*
X0276053Y0222356D02*
X0257300Y0222356D01*
X0257300Y0222955D02*
X0276064Y0222955D01*
X0276075Y0223553D02*
X0257300Y0223553D01*
X0257300Y0224152D02*
X0276086Y0224152D01*
X0276097Y0224750D02*
X0257300Y0224750D01*
X0257300Y0225349D02*
X0276108Y0225349D01*
X0276118Y0225947D02*
X0257300Y0225947D01*
X0257300Y0226546D02*
X0276129Y0226546D01*
X0276140Y0227144D02*
X0257300Y0227144D01*
X0257300Y0227743D02*
X0276151Y0227743D01*
X0276162Y0228341D02*
X0257300Y0228341D01*
X0257300Y0228940D02*
X0276172Y0228940D01*
X0276183Y0229539D02*
X0257300Y0229539D01*
X0257300Y0230137D02*
X0276194Y0230137D01*
X0276205Y0230736D02*
X0257300Y0230736D01*
X0257300Y0231334D02*
X0276216Y0231334D01*
X0276226Y0231933D02*
X0257300Y0231933D01*
X0257300Y0232531D02*
X0276237Y0232531D01*
X0276248Y0233130D02*
X0257300Y0233130D01*
X0257300Y0233728D02*
X0276259Y0233728D01*
X0276270Y0234327D02*
X0257300Y0234327D01*
X0257300Y0234925D02*
X0276281Y0234925D01*
X0276291Y0235524D02*
X0257300Y0235524D01*
X0257300Y0236122D02*
X0276300Y0236122D01*
X0276300Y0236721D02*
X0257300Y0236721D01*
X0257300Y0237319D02*
X0276300Y0237319D01*
X0276300Y0237918D02*
X0257300Y0237918D01*
X0257300Y0238516D02*
X0276300Y0238516D01*
X0276300Y0239115D02*
X0257300Y0239115D01*
X0257300Y0239713D02*
X0276300Y0239713D01*
X0276300Y0240312D02*
X0257300Y0240312D01*
X0257300Y0240910D02*
X0276300Y0240910D01*
X0276300Y0241509D02*
X0257300Y0241509D01*
X0257300Y0242107D02*
X0276300Y0242107D01*
X0276300Y0242706D02*
X0257300Y0242706D01*
X0257604Y0243304D02*
X0276300Y0243304D01*
X0276300Y0243903D02*
X0258203Y0243903D01*
X0258801Y0244501D02*
X0276300Y0244501D01*
X0265200Y0245100D02*
X0259400Y0245100D01*
X0259998Y0245698D02*
X0264602Y0245698D01*
X0264003Y0246297D02*
X0260597Y0246297D01*
X0261195Y0246895D02*
X0263405Y0246895D01*
X0262806Y0247494D02*
X0261794Y0247494D01*
X0268300Y0285000D02*
X0265300Y0288000D01*
X0265300Y0291000D01*
X0269300Y0295000D01*
X0286300Y0295000D01*
X0299300Y0308000D01*
X0299300Y0310000D01*
X0301300Y0312000D01*
X0304300Y0312000D01*
X0305300Y0311000D01*
X0306300Y0311000D01*
X0308300Y0309000D01*
X0308300Y0295000D01*
X0298300Y0285000D01*
X0268300Y0285000D01*
X0268100Y0285200D02*
X0298500Y0285200D01*
X0299099Y0285799D02*
X0267501Y0285799D01*
X0266903Y0286397D02*
X0299697Y0286397D01*
X0300296Y0286996D02*
X0266304Y0286996D01*
X0265706Y0287594D02*
X0300894Y0287594D01*
X0301493Y0288193D02*
X0265300Y0288193D01*
X0265300Y0288791D02*
X0302091Y0288791D01*
X0302690Y0289390D02*
X0265300Y0289390D01*
X0265300Y0289988D02*
X0303288Y0289988D01*
X0303887Y0290587D02*
X0265300Y0290587D01*
X0265485Y0291185D02*
X0304485Y0291185D01*
X0305084Y0291784D02*
X0266084Y0291784D01*
X0266682Y0292382D02*
X0305682Y0292382D01*
X0306281Y0292981D02*
X0267281Y0292981D01*
X0267879Y0293579D02*
X0306879Y0293579D01*
X0307478Y0294178D02*
X0268478Y0294178D01*
X0269076Y0294776D02*
X0308076Y0294776D01*
X0308300Y0295375D02*
X0286675Y0295375D01*
X0287273Y0295973D02*
X0308300Y0295973D01*
X0308300Y0296572D02*
X0287872Y0296572D01*
X0288470Y0297170D02*
X0308300Y0297170D01*
X0308300Y0297769D02*
X0289069Y0297769D01*
X0289667Y0298367D02*
X0308300Y0298367D01*
X0308300Y0298966D02*
X0290266Y0298966D01*
X0290864Y0299564D02*
X0308300Y0299564D01*
X0308300Y0300163D02*
X0291463Y0300163D01*
X0292061Y0300761D02*
X0308300Y0300761D01*
X0308300Y0301360D02*
X0292660Y0301360D01*
X0293258Y0301958D02*
X0308300Y0301958D01*
X0308300Y0302557D02*
X0293857Y0302557D01*
X0294455Y0303155D02*
X0308300Y0303155D01*
X0308300Y0303754D02*
X0295054Y0303754D01*
X0295652Y0304352D02*
X0308300Y0304352D01*
X0308300Y0304951D02*
X0296251Y0304951D01*
X0296849Y0305549D02*
X0308300Y0305549D01*
X0308300Y0306148D02*
X0297448Y0306148D01*
X0298046Y0306746D02*
X0308300Y0306746D01*
X0308300Y0307345D02*
X0298645Y0307345D01*
X0299243Y0307943D02*
X0308300Y0307943D01*
X0308300Y0308542D02*
X0299300Y0308542D01*
X0299300Y0309141D02*
X0308159Y0309141D01*
X0307561Y0309739D02*
X0299300Y0309739D01*
X0299638Y0310338D02*
X0306962Y0310338D01*
X0306364Y0310936D02*
X0300236Y0310936D01*
X0300835Y0311535D02*
X0304765Y0311535D01*
X0301426Y0315126D02*
X0285426Y0315126D01*
X0285300Y0315000D02*
X0287300Y0317000D01*
X0290300Y0317000D01*
X0300300Y0327000D01*
X0503300Y0327000D01*
X0510300Y0320000D01*
X0510300Y0124000D01*
X0501300Y0115000D01*
X0299300Y0115000D01*
X0299300Y0125000D01*
X0497300Y0125000D01*
X0501300Y0129000D01*
X0501300Y0313000D01*
X0494300Y0320000D01*
X0306300Y0320000D01*
X0297300Y0311000D01*
X0297300Y0309000D01*
X0294300Y0306000D01*
X0285300Y0306000D01*
X0285300Y0315000D01*
X0285300Y0314527D02*
X0300827Y0314527D01*
X0300229Y0313929D02*
X0285300Y0313929D01*
X0285300Y0313330D02*
X0299630Y0313330D01*
X0299032Y0312732D02*
X0285300Y0312732D01*
X0285300Y0312133D02*
X0298433Y0312133D01*
X0297835Y0311535D02*
X0285300Y0311535D01*
X0285300Y0310936D02*
X0297300Y0310936D01*
X0297300Y0310338D02*
X0285300Y0310338D01*
X0285300Y0309739D02*
X0297300Y0309739D01*
X0297300Y0309141D02*
X0285300Y0309141D01*
X0285300Y0308542D02*
X0296842Y0308542D01*
X0296243Y0307943D02*
X0285300Y0307943D01*
X0285300Y0307345D02*
X0295645Y0307345D01*
X0295046Y0306746D02*
X0285300Y0306746D01*
X0285300Y0306148D02*
X0294448Y0306148D01*
X0302024Y0315724D02*
X0286024Y0315724D01*
X0286623Y0316323D02*
X0302623Y0316323D01*
X0303221Y0316921D02*
X0287221Y0316921D01*
X0290820Y0317520D02*
X0303820Y0317520D01*
X0304418Y0318118D02*
X0291418Y0318118D01*
X0292017Y0318717D02*
X0305017Y0318717D01*
X0305615Y0319315D02*
X0292615Y0319315D01*
X0293214Y0319914D02*
X0306214Y0319914D01*
X0299199Y0325899D02*
X0504401Y0325899D01*
X0503803Y0326497D02*
X0299797Y0326497D01*
X0298600Y0325300D02*
X0505000Y0325300D01*
X0505598Y0324702D02*
X0298002Y0324702D01*
X0297403Y0324103D02*
X0506197Y0324103D01*
X0506795Y0323505D02*
X0296805Y0323505D01*
X0296206Y0322906D02*
X0507394Y0322906D01*
X0507992Y0322308D02*
X0295608Y0322308D01*
X0295009Y0321709D02*
X0508591Y0321709D01*
X0509189Y0321111D02*
X0294411Y0321111D01*
X0293812Y0320512D02*
X0509788Y0320512D01*
X0510300Y0319914D02*
X0494386Y0319914D01*
X0494985Y0319315D02*
X0510300Y0319315D01*
X0510300Y0318717D02*
X0495583Y0318717D01*
X0496182Y0318118D02*
X0510300Y0318118D01*
X0510300Y0317520D02*
X0496780Y0317520D01*
X0497379Y0316921D02*
X0510300Y0316921D01*
X0510300Y0316323D02*
X0497977Y0316323D01*
X0498576Y0315724D02*
X0510300Y0315724D01*
X0510300Y0315126D02*
X0499174Y0315126D01*
X0499773Y0314527D02*
X0510300Y0314527D01*
X0510300Y0313929D02*
X0500371Y0313929D01*
X0500970Y0313330D02*
X0510300Y0313330D01*
X0510300Y0312732D02*
X0501300Y0312732D01*
X0501300Y0312133D02*
X0510300Y0312133D01*
X0510300Y0311535D02*
X0501300Y0311535D01*
X0501300Y0310936D02*
X0510300Y0310936D01*
X0510300Y0310338D02*
X0501300Y0310338D01*
X0501300Y0309739D02*
X0510300Y0309739D01*
X0510300Y0309141D02*
X0501300Y0309141D01*
X0501300Y0308542D02*
X0510300Y0308542D01*
X0510300Y0307943D02*
X0501300Y0307943D01*
X0501300Y0307345D02*
X0510300Y0307345D01*
X0510300Y0306746D02*
X0501300Y0306746D01*
X0501300Y0306148D02*
X0510300Y0306148D01*
X0510300Y0305549D02*
X0501300Y0305549D01*
X0501300Y0304951D02*
X0510300Y0304951D01*
X0510300Y0304352D02*
X0501300Y0304352D01*
X0501300Y0303754D02*
X0510300Y0303754D01*
X0510300Y0303155D02*
X0501300Y0303155D01*
X0501300Y0302557D02*
X0510300Y0302557D01*
X0510300Y0301958D02*
X0501300Y0301958D01*
X0501300Y0301360D02*
X0510300Y0301360D01*
X0510300Y0300761D02*
X0501300Y0300761D01*
X0501300Y0300163D02*
X0510300Y0300163D01*
X0510300Y0299564D02*
X0501300Y0299564D01*
X0501300Y0298966D02*
X0510300Y0298966D01*
X0510300Y0298367D02*
X0501300Y0298367D01*
X0501300Y0297769D02*
X0510300Y0297769D01*
X0510300Y0297170D02*
X0501300Y0297170D01*
X0501300Y0296572D02*
X0510300Y0296572D01*
X0510300Y0295973D02*
X0501300Y0295973D01*
X0501300Y0295375D02*
X0510300Y0295375D01*
X0510300Y0294776D02*
X0501300Y0294776D01*
X0501300Y0294178D02*
X0510300Y0294178D01*
X0510300Y0293579D02*
X0501300Y0293579D01*
X0501300Y0292981D02*
X0510300Y0292981D01*
X0510300Y0292382D02*
X0501300Y0292382D01*
X0501300Y0291784D02*
X0510300Y0291784D01*
X0510300Y0291185D02*
X0501300Y0291185D01*
X0501300Y0290587D02*
X0510300Y0290587D01*
X0510300Y0289988D02*
X0501300Y0289988D01*
X0501300Y0289390D02*
X0510300Y0289390D01*
X0510300Y0288791D02*
X0501300Y0288791D01*
X0501300Y0288193D02*
X0510300Y0288193D01*
X0510300Y0287594D02*
X0501300Y0287594D01*
X0501300Y0286996D02*
X0510300Y0286996D01*
X0510300Y0286397D02*
X0501300Y0286397D01*
X0501300Y0285799D02*
X0510300Y0285799D01*
X0510300Y0285200D02*
X0501300Y0285200D01*
X0501300Y0284602D02*
X0510300Y0284602D01*
X0510300Y0284003D02*
X0501300Y0284003D01*
X0501300Y0283405D02*
X0510300Y0283405D01*
X0510300Y0282806D02*
X0501300Y0282806D01*
X0501300Y0282208D02*
X0510300Y0282208D01*
X0510300Y0281609D02*
X0501300Y0281609D01*
X0501300Y0281010D02*
X0510300Y0281010D01*
X0510300Y0280412D02*
X0501300Y0280412D01*
X0501300Y0279813D02*
X0510300Y0279813D01*
X0510300Y0279215D02*
X0501300Y0279215D01*
X0501300Y0278616D02*
X0510300Y0278616D01*
X0510300Y0278018D02*
X0501300Y0278018D01*
X0501300Y0277419D02*
X0510300Y0277419D01*
X0510300Y0276821D02*
X0501300Y0276821D01*
X0501300Y0276222D02*
X0510300Y0276222D01*
X0510300Y0275624D02*
X0501300Y0275624D01*
X0501300Y0275025D02*
X0510300Y0275025D01*
X0510300Y0274427D02*
X0501300Y0274427D01*
X0501300Y0273828D02*
X0510300Y0273828D01*
X0510300Y0273230D02*
X0501300Y0273230D01*
X0501300Y0272631D02*
X0510300Y0272631D01*
X0510300Y0272033D02*
X0501300Y0272033D01*
X0501300Y0271434D02*
X0510300Y0271434D01*
X0510300Y0270836D02*
X0501300Y0270836D01*
X0501300Y0270237D02*
X0510300Y0270237D01*
X0510300Y0269639D02*
X0501300Y0269639D01*
X0501300Y0269040D02*
X0510300Y0269040D01*
X0510300Y0268442D02*
X0501300Y0268442D01*
X0501300Y0267843D02*
X0510300Y0267843D01*
X0510300Y0267245D02*
X0501300Y0267245D01*
X0501300Y0266646D02*
X0510300Y0266646D01*
X0510300Y0266048D02*
X0501300Y0266048D01*
X0501300Y0265449D02*
X0510300Y0265449D01*
X0510300Y0264851D02*
X0501300Y0264851D01*
X0501300Y0264252D02*
X0510300Y0264252D01*
X0510300Y0263654D02*
X0501300Y0263654D01*
X0501300Y0263055D02*
X0510300Y0263055D01*
X0510300Y0262457D02*
X0501300Y0262457D01*
X0501300Y0261858D02*
X0510300Y0261858D01*
X0510300Y0261260D02*
X0501300Y0261260D01*
X0501300Y0260661D02*
X0510300Y0260661D01*
X0510300Y0260063D02*
X0501300Y0260063D01*
X0501300Y0259464D02*
X0510300Y0259464D01*
X0510300Y0258866D02*
X0501300Y0258866D01*
X0501300Y0258267D02*
X0510300Y0258267D01*
X0510300Y0257669D02*
X0501300Y0257669D01*
X0501300Y0257070D02*
X0510300Y0257070D01*
X0510300Y0256472D02*
X0501300Y0256472D01*
X0501300Y0255873D02*
X0510300Y0255873D01*
X0510300Y0255274D02*
X0501300Y0255274D01*
X0501300Y0254676D02*
X0510300Y0254676D01*
X0510300Y0254077D02*
X0501300Y0254077D01*
X0501300Y0253479D02*
X0510300Y0253479D01*
X0510300Y0252880D02*
X0501300Y0252880D01*
X0501300Y0252282D02*
X0510300Y0252282D01*
X0510300Y0251683D02*
X0501300Y0251683D01*
X0501300Y0251085D02*
X0510300Y0251085D01*
X0510300Y0250486D02*
X0501300Y0250486D01*
X0501300Y0249888D02*
X0510300Y0249888D01*
X0510300Y0249289D02*
X0501300Y0249289D01*
X0501300Y0248691D02*
X0510300Y0248691D01*
X0510300Y0248092D02*
X0501300Y0248092D01*
X0501300Y0247494D02*
X0510300Y0247494D01*
X0510300Y0246895D02*
X0501300Y0246895D01*
X0501300Y0246297D02*
X0510300Y0246297D01*
X0510300Y0245698D02*
X0501300Y0245698D01*
X0501300Y0245100D02*
X0510300Y0245100D01*
X0510300Y0244501D02*
X0501300Y0244501D01*
X0501300Y0243903D02*
X0510300Y0243903D01*
X0510300Y0243304D02*
X0501300Y0243304D01*
X0501300Y0242706D02*
X0510300Y0242706D01*
X0510300Y0242107D02*
X0501300Y0242107D01*
X0501300Y0241509D02*
X0510300Y0241509D01*
X0510300Y0240910D02*
X0501300Y0240910D01*
X0501300Y0240312D02*
X0510300Y0240312D01*
X0510300Y0239713D02*
X0501300Y0239713D01*
X0501300Y0239115D02*
X0510300Y0239115D01*
X0510300Y0238516D02*
X0501300Y0238516D01*
X0501300Y0237918D02*
X0510300Y0237918D01*
X0510300Y0237319D02*
X0501300Y0237319D01*
X0501300Y0236721D02*
X0510300Y0236721D01*
X0510300Y0236122D02*
X0501300Y0236122D01*
X0501300Y0235524D02*
X0510300Y0235524D01*
X0510300Y0234925D02*
X0501300Y0234925D01*
X0501300Y0234327D02*
X0510300Y0234327D01*
X0510300Y0233728D02*
X0501300Y0233728D01*
X0501300Y0233130D02*
X0510300Y0233130D01*
X0510300Y0232531D02*
X0501300Y0232531D01*
X0501300Y0231933D02*
X0510300Y0231933D01*
X0510300Y0231334D02*
X0501300Y0231334D01*
X0501300Y0230736D02*
X0510300Y0230736D01*
X0510300Y0230137D02*
X0501300Y0230137D01*
X0501300Y0229539D02*
X0510300Y0229539D01*
X0510300Y0228940D02*
X0501300Y0228940D01*
X0501300Y0228341D02*
X0510300Y0228341D01*
X0510300Y0227743D02*
X0501300Y0227743D01*
X0501300Y0227144D02*
X0510300Y0227144D01*
X0510300Y0226546D02*
X0501300Y0226546D01*
X0501300Y0225947D02*
X0510300Y0225947D01*
X0510300Y0225349D02*
X0501300Y0225349D01*
X0501300Y0224750D02*
X0510300Y0224750D01*
X0510300Y0224152D02*
X0501300Y0224152D01*
X0501300Y0223553D02*
X0510300Y0223553D01*
X0510300Y0222955D02*
X0501300Y0222955D01*
X0501300Y0222356D02*
X0510300Y0222356D01*
X0510300Y0221758D02*
X0501300Y0221758D01*
X0501300Y0221159D02*
X0510300Y0221159D01*
X0510300Y0220561D02*
X0501300Y0220561D01*
X0501300Y0219962D02*
X0510300Y0219962D01*
X0510300Y0219364D02*
X0501300Y0219364D01*
X0501300Y0218765D02*
X0510300Y0218765D01*
X0510300Y0218167D02*
X0501300Y0218167D01*
X0501300Y0217568D02*
X0510300Y0217568D01*
X0510300Y0216970D02*
X0501300Y0216970D01*
X0501300Y0216371D02*
X0510300Y0216371D01*
X0510300Y0215773D02*
X0501300Y0215773D01*
X0501300Y0215174D02*
X0510300Y0215174D01*
X0510300Y0214576D02*
X0501300Y0214576D01*
X0501300Y0213977D02*
X0510300Y0213977D01*
X0510300Y0213379D02*
X0501300Y0213379D01*
X0501300Y0212780D02*
X0510300Y0212780D01*
X0510300Y0212182D02*
X0501300Y0212182D01*
X0501300Y0211583D02*
X0510300Y0211583D01*
X0510300Y0210985D02*
X0501300Y0210985D01*
X0501300Y0210386D02*
X0510300Y0210386D01*
X0510300Y0209788D02*
X0501300Y0209788D01*
X0501300Y0209189D02*
X0510300Y0209189D01*
X0510300Y0208591D02*
X0501300Y0208591D01*
X0501300Y0207992D02*
X0510300Y0207992D01*
X0510300Y0207394D02*
X0501300Y0207394D01*
X0501300Y0206795D02*
X0510300Y0206795D01*
X0510300Y0206197D02*
X0501300Y0206197D01*
X0501300Y0205598D02*
X0510300Y0205598D01*
X0510300Y0205000D02*
X0501300Y0205000D01*
X0501300Y0204401D02*
X0510300Y0204401D01*
X0510300Y0203803D02*
X0501300Y0203803D01*
X0501300Y0203204D02*
X0510300Y0203204D01*
X0510300Y0202605D02*
X0501300Y0202605D01*
X0501300Y0202007D02*
X0510300Y0202007D01*
X0510300Y0201408D02*
X0501300Y0201408D01*
X0501300Y0200810D02*
X0510300Y0200810D01*
X0510300Y0200211D02*
X0501300Y0200211D01*
X0501300Y0199613D02*
X0510300Y0199613D01*
X0510300Y0199014D02*
X0501300Y0199014D01*
X0501300Y0198416D02*
X0510300Y0198416D01*
X0510300Y0197817D02*
X0501300Y0197817D01*
X0501300Y0197219D02*
X0510300Y0197219D01*
X0510300Y0196620D02*
X0501300Y0196620D01*
X0501300Y0196022D02*
X0510300Y0196022D01*
X0510300Y0195423D02*
X0501300Y0195423D01*
X0501300Y0194825D02*
X0510300Y0194825D01*
X0510300Y0194226D02*
X0501300Y0194226D01*
X0501300Y0193628D02*
X0510300Y0193628D01*
X0510300Y0193029D02*
X0501300Y0193029D01*
X0501300Y0192431D02*
X0510300Y0192431D01*
X0510300Y0191832D02*
X0501300Y0191832D01*
X0501300Y0191234D02*
X0510300Y0191234D01*
X0510300Y0190635D02*
X0501300Y0190635D01*
X0501300Y0190037D02*
X0510300Y0190037D01*
X0510300Y0189438D02*
X0501300Y0189438D01*
X0501300Y0188840D02*
X0510300Y0188840D01*
X0510300Y0188241D02*
X0501300Y0188241D01*
X0501300Y0187643D02*
X0510300Y0187643D01*
X0510300Y0187044D02*
X0501300Y0187044D01*
X0501300Y0186446D02*
X0510300Y0186446D01*
X0510300Y0185847D02*
X0501300Y0185847D01*
X0501300Y0185249D02*
X0510300Y0185249D01*
X0510300Y0184650D02*
X0501300Y0184650D01*
X0501300Y0184052D02*
X0510300Y0184052D01*
X0510300Y0183453D02*
X0501300Y0183453D01*
X0501300Y0182855D02*
X0510300Y0182855D01*
X0510300Y0182256D02*
X0501300Y0182256D01*
X0501300Y0181658D02*
X0510300Y0181658D01*
X0510300Y0181059D02*
X0501300Y0181059D01*
X0501300Y0180461D02*
X0510300Y0180461D01*
X0510300Y0179862D02*
X0501300Y0179862D01*
X0501300Y0179264D02*
X0510300Y0179264D01*
X0510300Y0178665D02*
X0501300Y0178665D01*
X0501300Y0178067D02*
X0510300Y0178067D01*
X0510300Y0177468D02*
X0501300Y0177468D01*
X0501300Y0176870D02*
X0510300Y0176870D01*
X0510300Y0176271D02*
X0501300Y0176271D01*
X0501300Y0175672D02*
X0510300Y0175672D01*
X0510300Y0175074D02*
X0501300Y0175074D01*
X0501300Y0174475D02*
X0510300Y0174475D01*
X0510300Y0173877D02*
X0501300Y0173877D01*
X0501300Y0173278D02*
X0510300Y0173278D01*
X0510300Y0172680D02*
X0501300Y0172680D01*
X0501300Y0172081D02*
X0510300Y0172081D01*
X0510300Y0171483D02*
X0501300Y0171483D01*
X0501300Y0170884D02*
X0510300Y0170884D01*
X0510300Y0170286D02*
X0501300Y0170286D01*
X0501300Y0169687D02*
X0510300Y0169687D01*
X0510300Y0169089D02*
X0501300Y0169089D01*
X0501300Y0168490D02*
X0510300Y0168490D01*
X0510300Y0167892D02*
X0501300Y0167892D01*
X0501300Y0167293D02*
X0510300Y0167293D01*
X0510300Y0166695D02*
X0501300Y0166695D01*
X0501300Y0166096D02*
X0510300Y0166096D01*
X0510300Y0165498D02*
X0501300Y0165498D01*
X0501300Y0164899D02*
X0510300Y0164899D01*
X0510300Y0164301D02*
X0501300Y0164301D01*
X0501300Y0163702D02*
X0510300Y0163702D01*
X0510300Y0163104D02*
X0501300Y0163104D01*
X0501300Y0162505D02*
X0510300Y0162505D01*
X0510300Y0161907D02*
X0501300Y0161907D01*
X0501300Y0161308D02*
X0510300Y0161308D01*
X0510300Y0160710D02*
X0501300Y0160710D01*
X0501300Y0160111D02*
X0510300Y0160111D01*
X0510300Y0159513D02*
X0501300Y0159513D01*
X0501300Y0158914D02*
X0510300Y0158914D01*
X0510300Y0158316D02*
X0501300Y0158316D01*
X0501300Y0157717D02*
X0510300Y0157717D01*
X0510300Y0157119D02*
X0501300Y0157119D01*
X0501300Y0156520D02*
X0510300Y0156520D01*
X0510300Y0155922D02*
X0501300Y0155922D01*
X0501300Y0155323D02*
X0510300Y0155323D01*
X0510300Y0154725D02*
X0501300Y0154725D01*
X0501300Y0154126D02*
X0510300Y0154126D01*
X0510300Y0153528D02*
X0501300Y0153528D01*
X0501300Y0152929D02*
X0510300Y0152929D01*
X0510300Y0152331D02*
X0501300Y0152331D01*
X0501300Y0151732D02*
X0510300Y0151732D01*
X0510300Y0151134D02*
X0501300Y0151134D01*
X0501300Y0150535D02*
X0510300Y0150535D01*
X0510300Y0149937D02*
X0501300Y0149937D01*
X0501300Y0149338D02*
X0510300Y0149338D01*
X0510300Y0148739D02*
X0501300Y0148739D01*
X0501300Y0148141D02*
X0510300Y0148141D01*
X0510300Y0147542D02*
X0501300Y0147542D01*
X0501300Y0146944D02*
X0510300Y0146944D01*
X0510300Y0146345D02*
X0501300Y0146345D01*
X0501300Y0145747D02*
X0510300Y0145747D01*
X0510300Y0145148D02*
X0501300Y0145148D01*
X0501300Y0144550D02*
X0510300Y0144550D01*
X0510300Y0143951D02*
X0501300Y0143951D01*
X0501300Y0143353D02*
X0510300Y0143353D01*
X0510300Y0142754D02*
X0501300Y0142754D01*
X0501300Y0142156D02*
X0510300Y0142156D01*
X0510300Y0141557D02*
X0501300Y0141557D01*
X0501300Y0140959D02*
X0510300Y0140959D01*
X0510300Y0140360D02*
X0501300Y0140360D01*
X0501300Y0139762D02*
X0510300Y0139762D01*
X0510300Y0139163D02*
X0501300Y0139163D01*
X0501300Y0138565D02*
X0510300Y0138565D01*
X0510300Y0137966D02*
X0501300Y0137966D01*
X0501300Y0137368D02*
X0510300Y0137368D01*
X0510300Y0136769D02*
X0501300Y0136769D01*
X0501300Y0136171D02*
X0510300Y0136171D01*
X0510300Y0135572D02*
X0501300Y0135572D01*
X0501300Y0134974D02*
X0510300Y0134974D01*
X0510300Y0134375D02*
X0501300Y0134375D01*
X0501300Y0133777D02*
X0510300Y0133777D01*
X0510300Y0133178D02*
X0501300Y0133178D01*
X0501300Y0132580D02*
X0510300Y0132580D01*
X0510300Y0131981D02*
X0501300Y0131981D01*
X0501300Y0131383D02*
X0510300Y0131383D01*
X0510300Y0130784D02*
X0501300Y0130784D01*
X0501300Y0130186D02*
X0510300Y0130186D01*
X0510300Y0129587D02*
X0501300Y0129587D01*
X0501289Y0128989D02*
X0510300Y0128989D01*
X0510300Y0128390D02*
X0500690Y0128390D01*
X0500092Y0127792D02*
X0510300Y0127792D01*
X0510300Y0127193D02*
X0499493Y0127193D01*
X0498895Y0126595D02*
X0510300Y0126595D01*
X0510300Y0125996D02*
X0498296Y0125996D01*
X0497698Y0125398D02*
X0510300Y0125398D01*
X0510300Y0124799D02*
X0299300Y0124799D01*
X0299300Y0124201D02*
X0510300Y0124201D01*
X0509902Y0123602D02*
X0299300Y0123602D01*
X0299300Y0123003D02*
X0509303Y0123003D01*
X0508705Y0122405D02*
X0299300Y0122405D01*
X0299300Y0121806D02*
X0508106Y0121806D01*
X0507508Y0121208D02*
X0299300Y0121208D01*
X0299300Y0120609D02*
X0506909Y0120609D01*
X0506311Y0120011D02*
X0299300Y0120011D01*
X0299300Y0119412D02*
X0505712Y0119412D01*
X0505114Y0118814D02*
X0299300Y0118814D01*
X0299300Y0118215D02*
X0504515Y0118215D01*
X0503917Y0117617D02*
X0299300Y0117617D01*
X0299300Y0117018D02*
X0503318Y0117018D01*
X0502720Y0116420D02*
X0299300Y0116420D01*
X0299300Y0115821D02*
X0502121Y0115821D01*
X0501523Y0115223D02*
X0299300Y0115223D01*
X0348043Y0066743D02*
X0364557Y0066743D01*
X0365155Y0066145D02*
X0347445Y0066145D01*
X0346846Y0065546D02*
X0365754Y0065546D01*
X0366352Y0064948D02*
X0346248Y0064948D01*
X0345649Y0064349D02*
X0366951Y0064349D01*
X0367549Y0063751D02*
X0345051Y0063751D01*
X0344452Y0063152D02*
X0368148Y0063152D01*
X0363958Y0067342D02*
X0348642Y0067342D01*
X0349240Y0067940D02*
X0363360Y0067940D01*
X0362761Y0068539D02*
X0349839Y0068539D01*
X0350437Y0069137D02*
X0362300Y0069137D01*
X0362300Y0069736D02*
X0351036Y0069736D01*
D13*
X0289300Y0240000D02*
X0284300Y0240000D01*
X0282300Y0242000D01*
X0279300Y0242000D01*
X0277300Y0240000D01*
X0276300Y0240000D01*
X0276300Y0252000D01*
X0279300Y0252000D01*
X0290300Y0241000D01*
X0289300Y0240000D01*
X0289734Y0240434D02*
X0283866Y0240434D01*
X0283068Y0241232D02*
X0290068Y0241232D01*
X0289269Y0242031D02*
X0276300Y0242031D01*
X0276300Y0242829D02*
X0288471Y0242829D01*
X0287672Y0243628D02*
X0276300Y0243628D01*
X0276300Y0244426D02*
X0286874Y0244426D01*
X0286075Y0245225D02*
X0276300Y0245225D01*
X0276300Y0246023D02*
X0285277Y0246023D01*
X0284478Y0246822D02*
X0276300Y0246822D01*
X0276300Y0247620D02*
X0283680Y0247620D01*
X0282881Y0248419D02*
X0276300Y0248419D01*
X0276300Y0249217D02*
X0282083Y0249217D01*
X0281284Y0250016D02*
X0276300Y0250016D01*
X0276300Y0250814D02*
X0280486Y0250814D01*
X0279687Y0251613D02*
X0276300Y0251613D01*
X0276300Y0241232D02*
X0278532Y0241232D01*
X0277734Y0240434D02*
X0276300Y0240434D01*
D14*
X0239425Y0075625D03*
X0229425Y0075625D03*
X0219425Y0075625D03*
X0209425Y0075625D03*
X0209425Y0065625D03*
X0219425Y0065625D03*
X0229425Y0065625D03*
X0239425Y0065625D03*
X0178800Y0065625D03*
X0168800Y0065625D03*
X0158800Y0065625D03*
X0148800Y0065625D03*
X0138800Y0065625D03*
X0138800Y0075625D03*
X0148800Y0075625D03*
X0158800Y0075625D03*
X0168800Y0075625D03*
X0178800Y0075625D03*
D15*
X0238800Y0115000D03*
D16*
X0238800Y0125000D03*
X0238800Y0135000D03*
X0238800Y0145000D03*
X0238800Y0155000D03*
X0238800Y0165000D03*
X0238800Y0175000D03*
X0238800Y0185000D03*
X0238800Y0195000D03*
X0238800Y0205000D03*
X0238800Y0215000D03*
X0238800Y0225000D03*
X0238800Y0235000D03*
X0238800Y0245000D03*
X0238800Y0255000D03*
X0238800Y0265000D03*
X0238800Y0275000D03*
X0238800Y0285000D03*
D17*
X0358800Y0280000D03*
X0358800Y0270000D03*
X0358800Y0260000D03*
X0358800Y0250000D03*
X0358800Y0240000D03*
X0358800Y0225000D03*
X0358800Y0215000D03*
X0358800Y0205000D03*
X0358800Y0195000D03*
X0358800Y0185000D03*
X0358800Y0175000D03*
X0358800Y0165000D03*
X0358800Y0155000D03*
X0408800Y0155000D03*
X0408800Y0165000D03*
X0408800Y0175000D03*
X0408800Y0185000D03*
X0408800Y0195000D03*
X0408800Y0205000D03*
X0408800Y0215000D03*
X0408800Y0225000D03*
X0408800Y0240000D03*
X0408800Y0250000D03*
X0408800Y0260000D03*
X0408800Y0270000D03*
X0408800Y0280000D03*
X0408800Y0290000D03*
X0408800Y0300000D03*
X0408800Y0310000D03*
X0438800Y0310000D03*
X0438800Y0300000D03*
X0438800Y0290000D03*
X0438800Y0280000D03*
X0438800Y0270000D03*
X0438800Y0260000D03*
X0438800Y0250000D03*
X0438800Y0240000D03*
X0438800Y0225000D03*
X0438800Y0215000D03*
X0438800Y0205000D03*
X0438800Y0195000D03*
X0438800Y0185000D03*
X0438800Y0175000D03*
X0438800Y0165000D03*
X0438800Y0155000D03*
X0488800Y0155000D03*
X0488800Y0165000D03*
X0488800Y0175000D03*
X0488800Y0185000D03*
X0488800Y0195000D03*
X0488800Y0205000D03*
X0488800Y0215000D03*
X0488800Y0225000D03*
X0488800Y0240000D03*
X0488800Y0250000D03*
X0488800Y0260000D03*
X0488800Y0270000D03*
X0488800Y0280000D03*
X0488800Y0290000D03*
X0488800Y0300000D03*
X0488800Y0310000D03*
X0358800Y0310000D03*
X0358800Y0300000D03*
X0358800Y0290000D03*
D18*
X0344800Y0290000D03*
X0334700Y0290000D03*
X0334700Y0280000D03*
X0344800Y0280000D03*
X0344800Y0270000D03*
X0334700Y0270000D03*
X0334700Y0300000D03*
X0344800Y0300000D03*
X0419300Y0289800D03*
X0429400Y0289800D03*
X0429400Y0279800D03*
X0419300Y0279800D03*
X0419300Y0269800D03*
X0429400Y0269800D03*
X0429400Y0259800D03*
X0419300Y0259800D03*
X0423800Y0205000D03*
X0423800Y0195000D03*
X0423800Y0185000D03*
X0423800Y0175000D03*
X0343800Y0175000D03*
X0343800Y0165000D03*
X0343800Y0185000D03*
X0343800Y0195000D03*
X0202300Y0247100D03*
X0202300Y0257100D03*
X0202300Y0267100D03*
X0202300Y0277100D03*
X0043550Y0062650D03*
X0033550Y0062650D03*
X0023550Y0062650D03*
X0013550Y0062650D03*
X0069300Y0052000D03*
X0079300Y0052000D03*
X0089300Y0052000D03*
X0099300Y0052000D03*
D19*
X0086700Y0085400D03*
X0076700Y0085400D03*
X0066700Y0085400D03*
X0036700Y0050800D03*
X0026700Y0050800D03*
X0016700Y0050800D03*
X0142100Y0216800D03*
X0152100Y0216800D03*
X0162100Y0216800D03*
X0162100Y0226800D03*
X0152100Y0226800D03*
X0142100Y0226800D03*
X0142100Y0237000D03*
X0152100Y0237000D03*
X0162100Y0237000D03*
X0162100Y0247000D03*
X0152100Y0247000D03*
X0142100Y0247000D03*
X0142100Y0257000D03*
X0152100Y0257000D03*
X0162100Y0257000D03*
X0172100Y0257000D03*
X0182100Y0257000D03*
X0192300Y0257000D03*
X0192300Y0247000D03*
X0182100Y0247000D03*
X0172100Y0247000D03*
X0172100Y0267000D03*
X0182100Y0267000D03*
X0192300Y0267000D03*
X0162100Y0267000D03*
X0152100Y0267000D03*
X0142100Y0267000D03*
X0388800Y0250000D03*
X0468800Y0250000D03*
X0468800Y0165000D03*
X0388800Y0165000D03*
D20*
X0378800Y0165000D03*
X0378800Y0175000D03*
X0388800Y0175000D03*
X0388800Y0185000D03*
X0378800Y0185000D03*
X0458800Y0185000D03*
X0468800Y0185000D03*
X0468800Y0175000D03*
X0458800Y0175000D03*
X0458800Y0165000D03*
X0458800Y0250000D03*
X0458800Y0260000D03*
X0468800Y0260000D03*
X0468800Y0270000D03*
X0458800Y0270000D03*
X0388800Y0270000D03*
X0378800Y0270000D03*
X0378800Y0260000D03*
X0388800Y0260000D03*
X0378800Y0250000D03*
D21*
X0303493Y0307000D03*
X0289713Y0307000D03*
X0300107Y0070000D03*
X0313887Y0070000D03*
X0327707Y0070000D03*
X0341487Y0070000D03*
X0355307Y0070000D03*
X0369087Y0070000D03*
X0382907Y0070000D03*
X0396687Y0070000D03*
D22*
X0418300Y0062000D03*
X0428300Y0062000D03*
X0438300Y0062000D03*
X0448300Y0062000D03*
X0448300Y0052000D03*
X0438300Y0052000D03*
X0428300Y0052000D03*
X0418300Y0052000D03*
X0343800Y0215000D03*
X0333800Y0215000D03*
X0333800Y0225000D03*
X0343800Y0225000D03*
X0343800Y0235000D03*
X0333800Y0235000D03*
X0333800Y0245000D03*
X0343800Y0245000D03*
X0106400Y0075500D03*
X0096400Y0075500D03*
X0086400Y0075500D03*
X0076400Y0075500D03*
X0076400Y0065500D03*
X0086400Y0065500D03*
X0096400Y0065500D03*
X0106400Y0065500D03*
X0043600Y0072700D03*
X0033600Y0072700D03*
X0023600Y0072700D03*
X0013600Y0072700D03*
X0013600Y0082700D03*
X0023600Y0082700D03*
X0033600Y0082700D03*
X0043600Y0082700D03*
D23*
X0149332Y0303537D02*
X0150007Y0302862D01*
X0148430Y0301279D01*
X0146197Y0301276D01*
X0144614Y0302853D01*
X0144611Y0305086D01*
X0146188Y0306669D01*
X0148421Y0306672D01*
X0150004Y0305095D01*
X0150007Y0302862D01*
X0148996Y0303279D01*
X0148009Y0302290D01*
X0146614Y0302287D01*
X0145625Y0303274D01*
X0145622Y0304669D01*
X0146609Y0305658D01*
X0148004Y0305661D01*
X0148993Y0304674D01*
X0148996Y0303279D01*
X0147983Y0303697D01*
X0147589Y0303301D01*
X0147032Y0303300D01*
X0146636Y0303694D01*
X0146635Y0304251D01*
X0147029Y0304647D01*
X0147586Y0304648D01*
X0147982Y0304254D01*
X0147983Y0303697D01*
X0159332Y0303554D02*
X0160007Y0302879D01*
X0158430Y0301296D01*
X0156197Y0301293D01*
X0154614Y0302870D01*
X0154611Y0305103D01*
X0156188Y0306686D01*
X0158421Y0306689D01*
X0160004Y0305112D01*
X0160007Y0302879D01*
X0158996Y0303296D01*
X0158009Y0302307D01*
X0156614Y0302304D01*
X0155625Y0303291D01*
X0155622Y0304686D01*
X0156609Y0305675D01*
X0158004Y0305678D01*
X0158993Y0304691D01*
X0158996Y0303296D01*
X0157983Y0303714D01*
X0157589Y0303318D01*
X0157032Y0303317D01*
X0156636Y0303711D01*
X0156635Y0304268D01*
X0157029Y0304664D01*
X0157586Y0304665D01*
X0157982Y0304271D01*
X0157983Y0303714D01*
X0169332Y0303572D02*
X0170007Y0302897D01*
X0168430Y0301314D01*
X0166197Y0301311D01*
X0164614Y0302888D01*
X0164611Y0305121D01*
X0166188Y0306704D01*
X0168421Y0306707D01*
X0170004Y0305130D01*
X0170007Y0302897D01*
X0168996Y0303314D01*
X0168009Y0302325D01*
X0166614Y0302322D01*
X0165625Y0303309D01*
X0165622Y0304704D01*
X0166609Y0305693D01*
X0168004Y0305696D01*
X0168993Y0304709D01*
X0168996Y0303314D01*
X0167983Y0303732D01*
X0167589Y0303336D01*
X0167032Y0303335D01*
X0166636Y0303729D01*
X0166635Y0304286D01*
X0167029Y0304682D01*
X0167586Y0304683D01*
X0167982Y0304289D01*
X0167983Y0303732D01*
X0179332Y0303589D02*
X0180007Y0302914D01*
X0178430Y0301331D01*
X0176197Y0301328D01*
X0174614Y0302905D01*
X0174611Y0305138D01*
X0176188Y0306721D01*
X0178421Y0306724D01*
X0180004Y0305147D01*
X0180007Y0302914D01*
X0178996Y0303331D01*
X0178009Y0302342D01*
X0176614Y0302339D01*
X0175625Y0303326D01*
X0175622Y0304721D01*
X0176609Y0305710D01*
X0178004Y0305713D01*
X0178993Y0304726D01*
X0178996Y0303331D01*
X0177983Y0303749D01*
X0177589Y0303353D01*
X0177032Y0303352D01*
X0176636Y0303746D01*
X0176635Y0304303D01*
X0177029Y0304699D01*
X0177586Y0304700D01*
X0177982Y0304306D01*
X0177983Y0303749D01*
X0189332Y0303607D02*
X0190007Y0302932D01*
X0188430Y0301349D01*
X0186197Y0301346D01*
X0184614Y0302923D01*
X0184611Y0305156D01*
X0186188Y0306739D01*
X0188421Y0306742D01*
X0190004Y0305165D01*
X0190007Y0302932D01*
X0188996Y0303349D01*
X0188009Y0302360D01*
X0186614Y0302357D01*
X0185625Y0303344D01*
X0185622Y0304739D01*
X0186609Y0305728D01*
X0188004Y0305731D01*
X0188993Y0304744D01*
X0188996Y0303349D01*
X0187983Y0303767D01*
X0187589Y0303371D01*
X0187032Y0303370D01*
X0186636Y0303764D01*
X0186635Y0304321D01*
X0187029Y0304717D01*
X0187586Y0304718D01*
X0187982Y0304324D01*
X0187983Y0303767D01*
X0189314Y0313607D02*
X0189989Y0312932D01*
X0188412Y0311349D01*
X0186179Y0311346D01*
X0184596Y0312923D01*
X0184593Y0315156D01*
X0186170Y0316739D01*
X0188403Y0316742D01*
X0189986Y0315165D01*
X0189989Y0312932D01*
X0188978Y0313349D01*
X0187991Y0312360D01*
X0186596Y0312357D01*
X0185607Y0313344D01*
X0185604Y0314739D01*
X0186591Y0315728D01*
X0187986Y0315731D01*
X0188975Y0314744D01*
X0188978Y0313349D01*
X0187965Y0313767D01*
X0187571Y0313371D01*
X0187014Y0313370D01*
X0186618Y0313764D01*
X0186617Y0314321D01*
X0187011Y0314717D01*
X0187568Y0314718D01*
X0187964Y0314324D01*
X0187965Y0313767D01*
X0179314Y0313589D02*
X0179989Y0312914D01*
X0178412Y0311331D01*
X0176179Y0311328D01*
X0174596Y0312905D01*
X0174593Y0315138D01*
X0176170Y0316721D01*
X0178403Y0316724D01*
X0179986Y0315147D01*
X0179989Y0312914D01*
X0178978Y0313331D01*
X0177991Y0312342D01*
X0176596Y0312339D01*
X0175607Y0313326D01*
X0175604Y0314721D01*
X0176591Y0315710D01*
X0177986Y0315713D01*
X0178975Y0314726D01*
X0178978Y0313331D01*
X0177965Y0313749D01*
X0177571Y0313353D01*
X0177014Y0313352D01*
X0176618Y0313746D01*
X0176617Y0314303D01*
X0177011Y0314699D01*
X0177568Y0314700D01*
X0177964Y0314306D01*
X0177965Y0313749D01*
X0169314Y0313572D02*
X0169989Y0312897D01*
X0168412Y0311314D01*
X0166179Y0311311D01*
X0164596Y0312888D01*
X0164593Y0315121D01*
X0166170Y0316704D01*
X0168403Y0316707D01*
X0169986Y0315130D01*
X0169989Y0312897D01*
X0168978Y0313314D01*
X0167991Y0312325D01*
X0166596Y0312322D01*
X0165607Y0313309D01*
X0165604Y0314704D01*
X0166591Y0315693D01*
X0167986Y0315696D01*
X0168975Y0314709D01*
X0168978Y0313314D01*
X0167965Y0313732D01*
X0167571Y0313336D01*
X0167014Y0313335D01*
X0166618Y0313729D01*
X0166617Y0314286D01*
X0167011Y0314682D01*
X0167568Y0314683D01*
X0167964Y0314289D01*
X0167965Y0313732D01*
X0159314Y0313554D02*
X0159989Y0312879D01*
X0158412Y0311296D01*
X0156179Y0311293D01*
X0154596Y0312870D01*
X0154593Y0315103D01*
X0156170Y0316686D01*
X0158403Y0316689D01*
X0159986Y0315112D01*
X0159989Y0312879D01*
X0158978Y0313296D01*
X0157991Y0312307D01*
X0156596Y0312304D01*
X0155607Y0313291D01*
X0155604Y0314686D01*
X0156591Y0315675D01*
X0157986Y0315678D01*
X0158975Y0314691D01*
X0158978Y0313296D01*
X0157965Y0313714D01*
X0157571Y0313318D01*
X0157014Y0313317D01*
X0156618Y0313711D01*
X0156617Y0314268D01*
X0157011Y0314664D01*
X0157568Y0314665D01*
X0157964Y0314271D01*
X0157965Y0313714D01*
X0149314Y0313537D02*
X0149989Y0312862D01*
X0148412Y0311279D01*
X0146179Y0311276D01*
X0144596Y0312853D01*
X0144593Y0315086D01*
X0146170Y0316669D01*
X0148403Y0316672D01*
X0149986Y0315095D01*
X0149989Y0312862D01*
X0148978Y0313279D01*
X0147991Y0312290D01*
X0146596Y0312287D01*
X0145607Y0313274D01*
X0145604Y0314669D01*
X0146591Y0315658D01*
X0147986Y0315661D01*
X0148975Y0314674D01*
X0148978Y0313279D01*
X0147965Y0313697D01*
X0147571Y0313301D01*
X0147014Y0313300D01*
X0146618Y0313694D01*
X0146617Y0314251D01*
X0147011Y0314647D01*
X0147568Y0314648D01*
X0147964Y0314254D01*
X0147965Y0313697D01*
X0218342Y0313622D02*
X0219017Y0312947D01*
X0217428Y0311376D01*
X0215195Y0311387D01*
X0213624Y0312976D01*
X0213635Y0315209D01*
X0215224Y0316780D01*
X0217457Y0316769D01*
X0219028Y0315180D01*
X0219017Y0312947D01*
X0218008Y0313372D01*
X0217015Y0312389D01*
X0215620Y0312396D01*
X0214637Y0313389D01*
X0214644Y0314784D01*
X0215637Y0315767D01*
X0217032Y0315760D01*
X0218015Y0314767D01*
X0218008Y0313372D01*
X0216998Y0313796D01*
X0216601Y0313403D01*
X0216044Y0313406D01*
X0215651Y0313803D01*
X0215654Y0314360D01*
X0216051Y0314753D01*
X0216608Y0314750D01*
X0217001Y0314353D01*
X0216998Y0313796D01*
X0228342Y0313570D02*
X0229017Y0312895D01*
X0227428Y0311324D01*
X0225195Y0311335D01*
X0223624Y0312924D01*
X0223635Y0315157D01*
X0225224Y0316728D01*
X0227457Y0316717D01*
X0229028Y0315128D01*
X0229017Y0312895D01*
X0228008Y0313320D01*
X0227015Y0312337D01*
X0225620Y0312344D01*
X0224637Y0313337D01*
X0224644Y0314732D01*
X0225637Y0315715D01*
X0227032Y0315708D01*
X0228015Y0314715D01*
X0228008Y0313320D01*
X0226998Y0313744D01*
X0226601Y0313351D01*
X0226044Y0313354D01*
X0225651Y0313751D01*
X0225654Y0314308D01*
X0226051Y0314701D01*
X0226608Y0314698D01*
X0227001Y0314301D01*
X0226998Y0313744D01*
X0238342Y0313518D02*
X0239017Y0312843D01*
X0237428Y0311272D01*
X0235195Y0311283D01*
X0233624Y0312872D01*
X0233635Y0315105D01*
X0235224Y0316676D01*
X0237457Y0316665D01*
X0239028Y0315076D01*
X0239017Y0312843D01*
X0238008Y0313268D01*
X0237015Y0312285D01*
X0235620Y0312292D01*
X0234637Y0313285D01*
X0234644Y0314680D01*
X0235637Y0315663D01*
X0237032Y0315656D01*
X0238015Y0314663D01*
X0238008Y0313268D01*
X0236998Y0313692D01*
X0236601Y0313299D01*
X0236044Y0313302D01*
X0235651Y0313699D01*
X0235654Y0314256D01*
X0236051Y0314649D01*
X0236608Y0314646D01*
X0237001Y0314249D01*
X0236998Y0313692D01*
X0248342Y0313465D02*
X0249017Y0312790D01*
X0247428Y0311219D01*
X0245195Y0311230D01*
X0243624Y0312819D01*
X0243635Y0315052D01*
X0245224Y0316623D01*
X0247457Y0316612D01*
X0249028Y0315023D01*
X0249017Y0312790D01*
X0248008Y0313215D01*
X0247015Y0312232D01*
X0245620Y0312239D01*
X0244637Y0313232D01*
X0244644Y0314627D01*
X0245637Y0315610D01*
X0247032Y0315603D01*
X0248015Y0314610D01*
X0248008Y0313215D01*
X0246998Y0313639D01*
X0246601Y0313246D01*
X0246044Y0313249D01*
X0245651Y0313646D01*
X0245654Y0314203D01*
X0246051Y0314596D01*
X0246608Y0314593D01*
X0247001Y0314196D01*
X0246998Y0313639D01*
X0258342Y0313413D02*
X0259017Y0312738D01*
X0257428Y0311167D01*
X0255195Y0311178D01*
X0253624Y0312767D01*
X0253635Y0315000D01*
X0255224Y0316571D01*
X0257457Y0316560D01*
X0259028Y0314971D01*
X0259017Y0312738D01*
X0258008Y0313163D01*
X0257015Y0312180D01*
X0255620Y0312187D01*
X0254637Y0313180D01*
X0254644Y0314575D01*
X0255637Y0315558D01*
X0257032Y0315551D01*
X0258015Y0314558D01*
X0258008Y0313163D01*
X0256998Y0313587D01*
X0256601Y0313194D01*
X0256044Y0313197D01*
X0255651Y0313594D01*
X0255654Y0314151D01*
X0256051Y0314544D01*
X0256608Y0314541D01*
X0257001Y0314144D01*
X0256998Y0313587D01*
X0258289Y0303413D02*
X0258964Y0302738D01*
X0257375Y0301167D01*
X0255142Y0301178D01*
X0253571Y0302767D01*
X0253582Y0305000D01*
X0255171Y0306571D01*
X0257404Y0306560D01*
X0258975Y0304971D01*
X0258964Y0302738D01*
X0257955Y0303163D01*
X0256962Y0302180D01*
X0255567Y0302187D01*
X0254584Y0303180D01*
X0254591Y0304575D01*
X0255584Y0305558D01*
X0256979Y0305551D01*
X0257962Y0304558D01*
X0257955Y0303163D01*
X0256945Y0303587D01*
X0256548Y0303194D01*
X0255991Y0303197D01*
X0255598Y0303594D01*
X0255601Y0304151D01*
X0255998Y0304544D01*
X0256555Y0304541D01*
X0256948Y0304144D01*
X0256945Y0303587D01*
X0248290Y0303466D02*
X0248965Y0302791D01*
X0247376Y0301220D01*
X0245143Y0301231D01*
X0243572Y0302820D01*
X0243583Y0305053D01*
X0245172Y0306624D01*
X0247405Y0306613D01*
X0248976Y0305024D01*
X0248965Y0302791D01*
X0247956Y0303216D01*
X0246963Y0302233D01*
X0245568Y0302240D01*
X0244585Y0303233D01*
X0244592Y0304628D01*
X0245585Y0305611D01*
X0246980Y0305604D01*
X0247963Y0304611D01*
X0247956Y0303216D01*
X0246946Y0303640D01*
X0246549Y0303247D01*
X0245992Y0303250D01*
X0245599Y0303647D01*
X0245602Y0304204D01*
X0245999Y0304597D01*
X0246556Y0304594D01*
X0246949Y0304197D01*
X0246946Y0303640D01*
X0238290Y0303518D02*
X0238965Y0302843D01*
X0237376Y0301272D01*
X0235143Y0301283D01*
X0233572Y0302872D01*
X0233583Y0305105D01*
X0235172Y0306676D01*
X0237405Y0306665D01*
X0238976Y0305076D01*
X0238965Y0302843D01*
X0237956Y0303268D01*
X0236963Y0302285D01*
X0235568Y0302292D01*
X0234585Y0303285D01*
X0234592Y0304680D01*
X0235585Y0305663D01*
X0236980Y0305656D01*
X0237963Y0304663D01*
X0237956Y0303268D01*
X0236946Y0303692D01*
X0236549Y0303299D01*
X0235992Y0303302D01*
X0235599Y0303699D01*
X0235602Y0304256D01*
X0235999Y0304649D01*
X0236556Y0304646D01*
X0236949Y0304249D01*
X0236946Y0303692D01*
X0228290Y0303570D02*
X0228965Y0302895D01*
X0227376Y0301324D01*
X0225143Y0301335D01*
X0223572Y0302924D01*
X0223583Y0305157D01*
X0225172Y0306728D01*
X0227405Y0306717D01*
X0228976Y0305128D01*
X0228965Y0302895D01*
X0227956Y0303320D01*
X0226963Y0302337D01*
X0225568Y0302344D01*
X0224585Y0303337D01*
X0224592Y0304732D01*
X0225585Y0305715D01*
X0226980Y0305708D01*
X0227963Y0304715D01*
X0227956Y0303320D01*
X0226946Y0303744D01*
X0226549Y0303351D01*
X0225992Y0303354D01*
X0225599Y0303751D01*
X0225602Y0304308D01*
X0225999Y0304701D01*
X0226556Y0304698D01*
X0226949Y0304301D01*
X0226946Y0303744D01*
X0218290Y0303623D02*
X0218965Y0302948D01*
X0217376Y0301377D01*
X0215143Y0301388D01*
X0213572Y0302977D01*
X0213583Y0305210D01*
X0215172Y0306781D01*
X0217405Y0306770D01*
X0218976Y0305181D01*
X0218965Y0302948D01*
X0217956Y0303373D01*
X0216963Y0302390D01*
X0215568Y0302397D01*
X0214585Y0303390D01*
X0214592Y0304785D01*
X0215585Y0305768D01*
X0216980Y0305761D01*
X0217963Y0304768D01*
X0217956Y0303373D01*
X0216946Y0303797D01*
X0216549Y0303404D01*
X0215992Y0303407D01*
X0215599Y0303804D01*
X0215602Y0304361D01*
X0215999Y0304754D01*
X0216556Y0304751D01*
X0216949Y0304354D01*
X0216946Y0303797D01*
D24*
X0266772Y0290000D02*
X0275828Y0290000D01*
X0275828Y0250000D02*
X0266772Y0250000D01*
D25*
X0196900Y0232000D03*
X0186900Y0232000D03*
X0186900Y0222000D03*
X0196900Y0222000D03*
X0128900Y0075800D03*
D26*
X0465953Y0072413D02*
X0465213Y0071673D01*
X0465208Y0074124D01*
X0466939Y0075861D01*
X0469390Y0075866D01*
X0471127Y0074135D01*
X0471132Y0071684D01*
X0469401Y0069947D01*
X0466950Y0069942D01*
X0465213Y0071673D01*
X0466322Y0072135D01*
X0466319Y0073667D01*
X0467401Y0074752D01*
X0468933Y0074755D01*
X0470018Y0073673D01*
X0470021Y0072141D01*
X0468939Y0071056D01*
X0467407Y0071053D01*
X0466322Y0072135D01*
X0467431Y0072596D01*
X0467430Y0073209D01*
X0467862Y0073643D01*
X0468475Y0073644D01*
X0468909Y0073212D01*
X0468910Y0072599D01*
X0468478Y0072165D01*
X0467865Y0072164D01*
X0467431Y0072596D01*
X0473037Y0065355D02*
X0472297Y0064615D01*
X0472292Y0067066D01*
X0474023Y0068803D01*
X0476474Y0068808D01*
X0478211Y0067077D01*
X0478216Y0064626D01*
X0476485Y0062889D01*
X0474034Y0062884D01*
X0472297Y0064615D01*
X0473406Y0065077D01*
X0473403Y0066609D01*
X0474485Y0067694D01*
X0476017Y0067697D01*
X0477102Y0066615D01*
X0477105Y0065083D01*
X0476023Y0063998D01*
X0474491Y0063995D01*
X0473406Y0065077D01*
X0474515Y0065538D01*
X0474514Y0066151D01*
X0474946Y0066585D01*
X0475559Y0066586D01*
X0475993Y0066154D01*
X0475994Y0065541D01*
X0475562Y0065107D01*
X0474949Y0065106D01*
X0474515Y0065538D01*
X0480095Y0072438D02*
X0479355Y0071698D01*
X0479350Y0074149D01*
X0481081Y0075886D01*
X0483532Y0075891D01*
X0485269Y0074160D01*
X0485274Y0071709D01*
X0483543Y0069972D01*
X0481092Y0069967D01*
X0479355Y0071698D01*
X0480464Y0072160D01*
X0480461Y0073692D01*
X0481543Y0074777D01*
X0483075Y0074780D01*
X0484160Y0073698D01*
X0484163Y0072166D01*
X0483081Y0071081D01*
X0481549Y0071078D01*
X0480464Y0072160D01*
X0481573Y0072621D01*
X0481572Y0073234D01*
X0482004Y0073668D01*
X0482617Y0073669D01*
X0483051Y0073237D01*
X0483052Y0072624D01*
X0482620Y0072190D01*
X0482007Y0072189D01*
X0481573Y0072621D01*
X0473012Y0079497D02*
X0472272Y0078757D01*
X0472267Y0081208D01*
X0473998Y0082945D01*
X0476449Y0082950D01*
X0478186Y0081219D01*
X0478191Y0078768D01*
X0476460Y0077031D01*
X0474009Y0077026D01*
X0472272Y0078757D01*
X0473381Y0079219D01*
X0473378Y0080751D01*
X0474460Y0081836D01*
X0475992Y0081839D01*
X0477077Y0080757D01*
X0477080Y0079225D01*
X0475998Y0078140D01*
X0474466Y0078137D01*
X0473381Y0079219D01*
X0474490Y0079680D01*
X0474489Y0080293D01*
X0474921Y0080727D01*
X0475534Y0080728D01*
X0475968Y0080296D01*
X0475969Y0079683D01*
X0475537Y0079249D01*
X0474924Y0079248D01*
X0474490Y0079680D01*
X0480071Y0086580D02*
X0479331Y0085840D01*
X0479326Y0088291D01*
X0481057Y0090028D01*
X0483508Y0090033D01*
X0485245Y0088302D01*
X0485250Y0085851D01*
X0483519Y0084114D01*
X0481068Y0084109D01*
X0479331Y0085840D01*
X0480440Y0086302D01*
X0480437Y0087834D01*
X0481519Y0088919D01*
X0483051Y0088922D01*
X0484136Y0087840D01*
X0484139Y0086308D01*
X0483057Y0085223D01*
X0481525Y0085220D01*
X0480440Y0086302D01*
X0481549Y0086763D01*
X0481548Y0087376D01*
X0481980Y0087810D01*
X0482593Y0087811D01*
X0483027Y0087379D01*
X0483028Y0086766D01*
X0482596Y0086332D01*
X0481983Y0086331D01*
X0481549Y0086763D01*
X0487154Y0079521D02*
X0486414Y0078781D01*
X0486409Y0081232D01*
X0488140Y0082969D01*
X0490591Y0082974D01*
X0492328Y0081243D01*
X0492333Y0078792D01*
X0490602Y0077055D01*
X0488151Y0077050D01*
X0486414Y0078781D01*
X0487523Y0079243D01*
X0487520Y0080775D01*
X0488602Y0081860D01*
X0490134Y0081863D01*
X0491219Y0080781D01*
X0491222Y0079249D01*
X0490140Y0078164D01*
X0488608Y0078161D01*
X0487523Y0079243D01*
X0488632Y0079704D01*
X0488631Y0080317D01*
X0489063Y0080751D01*
X0489676Y0080752D01*
X0490110Y0080320D01*
X0490111Y0079707D01*
X0489679Y0079273D01*
X0489066Y0079272D01*
X0488632Y0079704D01*
X0494213Y0086605D02*
X0493473Y0085865D01*
X0493468Y0088316D01*
X0495199Y0090053D01*
X0497650Y0090058D01*
X0499387Y0088327D01*
X0499392Y0085876D01*
X0497661Y0084139D01*
X0495210Y0084134D01*
X0493473Y0085865D01*
X0494582Y0086327D01*
X0494579Y0087859D01*
X0495661Y0088944D01*
X0497193Y0088947D01*
X0498278Y0087865D01*
X0498281Y0086333D01*
X0497199Y0085248D01*
X0495667Y0085245D01*
X0494582Y0086327D01*
X0495691Y0086788D01*
X0495690Y0087401D01*
X0496122Y0087835D01*
X0496735Y0087836D01*
X0497169Y0087404D01*
X0497170Y0086791D01*
X0496738Y0086357D01*
X0496125Y0086356D01*
X0495691Y0086788D01*
X0487129Y0093663D02*
X0486389Y0092923D01*
X0486384Y0095374D01*
X0488115Y0097111D01*
X0490566Y0097116D01*
X0492303Y0095385D01*
X0492308Y0092934D01*
X0490577Y0091197D01*
X0488126Y0091192D01*
X0486389Y0092923D01*
X0487498Y0093385D01*
X0487495Y0094917D01*
X0488577Y0096002D01*
X0490109Y0096005D01*
X0491194Y0094923D01*
X0491197Y0093391D01*
X0490115Y0092306D01*
X0488583Y0092303D01*
X0487498Y0093385D01*
X0488607Y0093846D01*
X0488606Y0094459D01*
X0489038Y0094893D01*
X0489651Y0094894D01*
X0490085Y0094462D01*
X0490086Y0093849D01*
X0489654Y0093415D01*
X0489041Y0093414D01*
X0488607Y0093846D01*
M02*
