%
M48
M72
T01C0.01378
T02C0.01772
T03C0.02362
T04C0.03543
T05C0.03937
T06C0.04000
T07C0.04724
%
T01
X263300Y239000
X264300Y263134
X226300Y281000
X205300Y302000
X415300Y78000
X405300Y90000
X407300Y92000
X405300Y94000
X407300Y96000
X405300Y98000
X403300Y96000
X403300Y92000
X393300Y85000
X379300Y77250
X378300Y92000
X378300Y96000
X374300Y96000
X374300Y92000
X374300Y100000
X374300Y104000
X374300Y108000
X378300Y108000
X378300Y104000
X378300Y100000
X403300Y100000
X405300Y102000
X407300Y100000
X407300Y104000
X405300Y106000
X403300Y104000
X403300Y108000
X407300Y108000
X397300Y120000
X396100Y122800
X393877Y120000
X390300Y120000
X391900Y123000
X369300Y120000
X367300Y123000
X364544Y120000
X362300Y123000
X360300Y120000
X350500Y108000
X350500Y104000
X350500Y100000
X346100Y100000
X346100Y104000
X346100Y108000
X340300Y119000
X338300Y122000
X335664Y119000
X333300Y122000
X331300Y119000
X321300Y108000
X317300Y108000
X317300Y104000
X321300Y104000
X321300Y100000
X317300Y100000
X317300Y96000
X321300Y96000
X321300Y92000
X317300Y92000
X294300Y92000
X292300Y94000
X294300Y96000
X292300Y98000
X290300Y96000
X290300Y100000
X292300Y102000
X294300Y100000
X294300Y104000
X292300Y106000
X290300Y108000
X290300Y104000
X294300Y108000
X303300Y119000
X306300Y122000
X308680Y119000
X311300Y122000
X313300Y119000
X346100Y96000
X346100Y92000
X350500Y92000
X350500Y96000
X288300Y89000
X288300Y79000
X294300Y145000
X295300Y160000
X287300Y160000
X287300Y171000
X251300Y174000
X312300Y198000
X319837Y198000
X325268Y215550
X325300Y224000
X398488Y245839
X439300Y322000
X271687Y307000
X63300Y59000
X396300Y159000
X505300Y157000
T02
X471300Y313000
T03
X232300Y200000
X250300Y192000
X279300Y180000
X288800Y185000
X284800Y192000
X291800Y210000
X298800Y210000
X308800Y215000
X317300Y211000
X291800Y220000
X293300Y232000
X300800Y230500
X280300Y238000
X291800Y244000
X288300Y248000
X279800Y257000
X295800Y258000
X312300Y258000
X320300Y271000
X322300Y243000
X317800Y236000
X374300Y217000
X383800Y225000
X415300Y214000
X418700Y220200
X418800Y230000
X423800Y235000
X448300Y245000
X453800Y240000
X458800Y230000
X455800Y200000
X445800Y190000
X478800Y200000
X416300Y159000
X400500Y145800
X388700Y145800
X344300Y156000
X338300Y149000
X329300Y150000
X318300Y146600
X296300Y165000
X295300Y172000
X249300Y150000
X244800Y130000
X254300Y121000
X284300Y118000
X288300Y112000
X287800Y126000
X288800Y140000
X242300Y103000
X236700Y100600
X254300Y95800
X295300Y79000
X283300Y67000
X266300Y64000
X245100Y57400
X201300Y55600
X185300Y51000
X174300Y53000
X153300Y71000
X179300Y86000
X187300Y88400
X128300Y45000
X203300Y236000
X206300Y226000
X197300Y262200
X174900Y277000
X153900Y278000
X146900Y286000
X139100Y292400
X140700Y322000
X449300Y75600
X421300Y82000
X402500Y57200
X392300Y59000
X474300Y132000
X493800Y136000
X480300Y147000
X480300Y155000
X453800Y155000
X264800Y282000
X280300Y300000
X288300Y320400
X322300Y312000
X393800Y285000
X417300Y305000
X422700Y303800
X415300Y311000
X452300Y288000
X468800Y305000
X227300Y286000
X206300Y309000
T04
X147309Y303974
X157309Y303991
X167309Y304009
X177309Y304026
X187309Y304044
X187291Y314044
X177291Y314026
X167291Y314009
X157291Y313991
X147291Y313974
X438800Y155000
X438800Y165000
X438800Y175000
X438800Y185000
X438800Y195000
X438800Y205000
X438800Y215000
X438800Y225000
X438800Y240000
X438800Y250000
X438800Y260000
X438800Y270000
X438800Y280000
X438800Y290000
X438800Y300000
X438800Y310000
X408800Y310000
X408800Y300000
X408800Y290000
X408800Y280000
X408800Y270000
X408800Y260000
X408800Y250000
X408800Y240000
X408800Y225000
X408800Y215000
X408800Y205000
X408800Y195000
X408800Y185000
X408800Y175000
X408800Y165000
X408800Y155000
X358800Y155000
X358800Y165000
X358800Y175000
X358800Y185000
X358800Y195000
X358800Y205000
X358800Y215000
X358800Y225000
X358800Y240000
X358800Y250000
X358800Y260000
X358800Y270000
X358800Y280000
X358800Y290000
X358800Y300000
X358800Y310000
X256326Y313869
X246326Y313921
X236326Y313974
X226326Y314026
X216326Y314078
X216274Y304079
X226274Y304026
X236274Y303974
X246274Y303922
X256273Y303869
X488800Y300000
X488800Y290000
X488800Y280000
X488800Y270000
X488800Y260000
X488800Y250000
X488800Y240000
X488800Y225000
X488800Y215000
X488800Y205000
X488800Y195000
X488800Y185000
X488800Y175000
X488800Y165000
X488800Y155000
X239425Y75625
X229425Y75625
X219425Y75625
X209425Y75625
X209425Y65625
X219425Y65625
X229425Y65625
X239425Y65625
X178800Y65625
X168800Y65625
X158800Y65625
X148800Y65625
X138800Y65625
X138800Y75625
X148800Y75625
X158800Y75625
X168800Y75625
X178800Y75625
X488800Y310000
T05
X289713Y307000
X303493Y307000
X396687Y70000
X382907Y70000
X369087Y70000
X355307Y70000
X341487Y70000
X327707Y70000
X313887Y70000
X300107Y70000
T06
X238800Y205000
X238800Y195000
X238800Y185000
X238800Y175000
X238800Y165000
X238800Y155000
X238800Y145000
X238800Y135000
X238800Y125000
X238800Y115000
X343800Y165000
X343800Y175000
X343800Y185000
X343800Y195000
X343800Y215000
X333800Y215000
X333800Y225000
X343800Y225000
X343800Y235000
X333800Y235000
X333800Y245000
X343800Y245000
X378800Y250000
X388800Y250000
X388800Y260000
X378800Y260000
X378800Y270000
X388800Y270000
X419300Y269800
X429400Y269800
X429400Y259800
X419300Y259800
X419300Y279800
X429400Y279800
X429400Y289800
X419300Y289800
X458800Y270000
X468800Y270000
X468800Y260000
X458800Y260000
X458800Y250000
X468800Y250000
X423800Y205000
X423800Y195000
X423800Y185000
X423800Y175000
X388800Y175000
X378800Y175000
X378800Y165000
X388800Y165000
X388800Y185000
X378800Y185000
X458800Y185000
X468800Y185000
X468800Y175000
X458800Y175000
X458800Y165000
X468800Y165000
X489346Y94154
X482288Y87071
X489371Y80012
X496430Y87096
X448300Y52000
X438300Y52000
X428300Y52000
X418300Y52000
X418300Y62000
X428300Y62000
X438300Y62000
X448300Y62000
X468170Y72904
X475254Y65846
X482312Y72929
X475229Y79988
X238800Y215000
X238800Y225000
X238800Y235000
X238800Y245000
X238800Y255000
X238800Y265000
X238800Y275000
X238800Y285000
X202300Y277100
X202300Y267100
X192300Y267000
X182100Y267000
X172100Y267000
X162100Y267000
X152100Y267000
X142100Y267000
X142100Y257000
X152100Y257000
X162100Y257000
X172100Y257000
X182100Y257000
X192300Y257000
X202300Y257100
X202300Y247100
X192300Y247000
X182100Y247000
X172100Y247000
X162100Y247000
X152100Y247000
X142100Y247000
X142100Y237000
X152100Y237000
X162100Y237000
X162100Y226800
X152100Y226800
X142100Y226800
X142100Y216800
X152100Y216800
X162100Y216800
X186900Y222000
X196900Y222000
X196900Y232000
X186900Y232000
X86700Y85400
X76700Y85400
X66700Y85400
X76400Y75500
X86400Y75500
X96400Y75500
X106400Y75500
X106400Y65500
X96400Y65500
X86400Y65500
X76400Y65500
X79300Y52000
X69300Y52000
X89300Y52000
X99300Y52000
X128900Y75800
X43600Y72700
X33600Y72700
X23600Y72700
X13600Y72700
X13600Y82700
X23600Y82700
X33600Y82700
X43600Y82700
X43550Y62650
X33550Y62650
X23550Y62650
X13550Y62650
X16700Y50800
X26700Y50800
X36700Y50800
X334700Y270000
X344800Y270000
X344800Y280000
X334700Y280000
X334700Y290000
X344800Y290000
X344800Y300000
X334700Y300000
T07
X271300Y250000
X271300Y290000
M30
